<?xml version="1.0" encoding="UTF-8"?>
<svg id="Capa_1" data-name="Capa 1" xmlns="http://www.w3.org/2000/svg" viewBox="0 0 686.22 480.35">
  <path d="M686.22,258.24c-5.51,9.62-11.64,18.25-18.61,26.24-26.05,29.86-58.34,48.65-96.94,55.93-72.4,13.67-146.62-23.76-179.94-90.52-5.63-11.27-10.09-22.96-13.23-35.19-.41-1.61-.41-2.69,1.06-3.78,27.05-20.02,53.9-40.32,81.16-60.03,20.84-15.06,42.37-14.03,63.76-.74,10.65,6.62,19.17,15.54,26.55,25.71,7.02,9.69,13.86,19.59,21.53,28.73,17.12,20.38,38.76,33.86,63.92,41.72,16.09,5.03,32.45,8.75,49.03,11.55.42.07.84.18,1.71.36h0Z" style="fill: #ff4d00;"/>
  <path d="M430.89,324.41c-14.3,7.4-28.92,12.59-44.26,15.54-31.56,6.06-62.47,3.59-92.44-8.25-39.51-15.62-69.15-42.7-89.14-80.7-6.08-11.55-10.55-23.75-13.84-36.4-.42-1.61-.26-2.64,1.19-3.71,26.3-19.5,52.53-39.07,78.83-58.57,7.52-5.57,15.67-9.84,24.98-11.45,14.42-2.49,27.73.88,39.88,8.68,5.85,3.75,11,8.6,16.5,12.93,1.8,1.41,2.32,3.16,2.27,5.48-.69,31.47,5.99,61.28,20.01,89.34,12.95,25.93,30.93,47.61,53.66,65.23.71.55,1.4,1.12,2.36,1.9h0Z" style="fill: #ff4d00;"/>
  <path d="M244.87,325.16c-8.58,3.37-16.74,7.11-25.22,9.81-75.64,24.09-155.61-7.05-196.27-76.32-8.11-13.81-14.04-28.57-18.01-44.14-.37-1.47-.41-2.42,1-3.47,26.38-19.54,52.71-39.17,79.09-58.72,7.52-5.57,15.67-9.84,24.98-11.44,13.82-2.38,26.72.57,38.46,7.93,6.34,3.97,12.01,9.08,17.82,13.88.98.8,1.62,2.65,1.61,4-.74,55.56,18.46,102.75,57.45,141.57,5.79,5.77,12.24,10.88,19.1,16.92h0Z" style="fill: #ff4d00;"/>
  <path d="M679.55,74.98c-7.78.68-15.39,1.69-23.03,1.92-11.01.35-22.07.66-33.05.03-13.11-.76-24.59-6.72-35.78-13.35-8.58-5.06-17.18-10.3-26.31-14.1-15.4-6.4-31.33-5.47-47.04-.59-8.99,2.79-15.71,8.86-21.24,16.4-7.61,10.36-13.22,21.9-18.95,33.38-1.39,2.78-2.96,5.51-4.05,8.41-4.45,11.79-12.53,20.71-21.56,28.96-23.12,21.11-47.99,39.94-73.06,58.53-.42.31-.9.53-1.4.82-10.47-61.19,18.85-148.78,105.44-183.39,81.3-32.49,163.34,5.21,200.03,62.99h0Z" style="fill: #ff4d00;"/>
  <path d="M187.79,195.53c-7.76-48.28,7.02-117.24,67.15-162.22,56.8-42.49,127.73-40.54,175.41-14.49-6.71,6-13.72,11.77-20.12,18.18-6.42,6.43-12.22,13.5-18.48,20.5-2.44-1.32-5.2-2.84-7.98-4.32-17.61-9.35-35.95-10.1-54.75-4.6-8.25,2.41-14.8,7.53-20.2,14.22-6.87,8.51-11.93,18.17-16.9,27.88-3.54,6.92-7.07,13.87-10.25,20.96-3.02,6.73-7.29,12.43-12.42,17.58-14.2,14.23-29.78,26.82-45.56,39.15-11.04,8.63-22.29,16.98-33.45,25.43-.71.54-1.48,1.02-2.45,1.7h0Z" style="fill: #ff4d00;"/>
  <path d="M244.69,18.85c-14.82,11.12-27.63,23.88-38.71,38.65-3.06-1.62-5.98-3.22-8.92-4.74-17.53-9.07-35.73-9.61-54.27-4.06-9.69,2.89-17.18,9.26-22.45,17.76-6.54,10.55-12.32,21.58-18.36,32.45-1.38,2.47-2.71,5.02-3.7,7.66-4.57,12.14-12.88,21.33-22.2,29.82-21.04,19.18-43.58,36.42-66.29,53.46-2.4,1.8-4.83,3.57-7.25,5.33-.13.09-.34.07-.51.1-7.6-43.72,4.61-112.14,62.54-158.51C120.45-7.94,192.79-8.84,244.69,18.85Z" style="fill: #ff4d00;"/>
  <path d="M401.37,355.07c7-1.56,14.02-3.13,21.26-4.75v43.08c.42-.07.73-.03.87-.16,11.72-11.7,34.86-9.12,44.35,9.38,8.76,17.06,2.18,38.88-14.3,46.42-7.87,3.59-15.96,3.91-23.8-.14-2.5-1.3-4.57-3.45-6.96-5.31v5.9h-21.41v-94.41h0ZM449.46,419.23c.06-8.28-5.35-13.97-13.37-14.04-8.35-.07-13.95,5.42-13.99,13.7-.04,8.27,5.33,13.78,13.51,13.9,8.16.12,13.78-5.39,13.84-13.57h0Z" style="fill: #ff4d00;"/>
  <path d="M118.87,393.71v-5.31h21.35v61.13h-21.32v-6.37c-8.45,9.31-18.36,10.45-28.85,6.58-11.33-4.19-17.63-13.1-19.57-25.04-1.97-12.18,1.3-22.82,10.37-31.22,9.26-8.58,25.88-10.86,38.01.22h0ZM105.88,405.2c-8.14,0-13.74,5.58-13.77,13.75-.03,8.21,5.5,13.8,13.67,13.84,8.21.03,13.73-5.49,13.73-13.74s-5.51-13.84-13.64-13.85h0Z" style="fill: #ff4d00;"/>
  <path d="M604.46,388.2c8.03,0,15.54-.07,23.04.09.91.02,2.15,1.13,2.64,2.06,4.56,8.67,8.99,17.4,13.47,26.11.45.88.94,1.72,1.61,2.98.64-1.15,1.13-1.97,1.56-2.84,4.4-8.75,8.82-17.49,13.12-26.28.8-1.64,1.72-2.2,3.52-2.17,7.14.11,14.29.05,21.85.05-.49,1.06-.82,1.86-1.22,2.63-15.29,29.09-30.6,58.17-45.82,87.29-.9,1.73-1.92,2.26-3.76,2.24-6.96-.1-13.92-.04-21.28-.04.47-1.09.79-1.97,1.23-2.79,5.98-11.34,11.92-22.68,17.98-33.97.88-1.65.88-2.86-.04-4.5-8.8-15.84-17.51-31.73-26.24-47.6-.51-.94-.99-1.9-1.68-3.25h0Z" style="fill: #ff4d00;"/>
  <path d="M176.07,449.49h-21.29v-61.09h21.31v7.37c.75-.7,1.03-.89,1.2-1.16,6.7-9.8,20.42-9.75,28.33-6.64,8.16,3.21,11.88,10.11,12.23,18.31.61,14.14.28,28.33.34,42.48,0,.16-.13.33-.28.7h-21.04v-2.96c0-9.3.03-18.58,0-27.88,0-2.2-.15-4.42-.39-6.6-.54-4.79-2.78-7.36-7.02-8.26-4.73-1-9.55.83-11.44,4.8-.99,2.09-1.69,4.53-1.74,6.83-.22,10.21-.16,20.43-.19,30.63v3.44h0Z" style="fill: #ff4d00;"/>
  <path d="M335.96,430.64c-2.12,8.3-6.81,14.04-14.03,17.31-12.49,5.68-25.03,5.19-37.04-1.39-10.76-5.89-16.08-18.82-14.45-32.11,2.34-19.06,16.65-28.66,34.38-28.26,7.95.18,15.43,2.07,21.58,7.55,8.47,7.54,10.48,17.56,10.46,28.87h-44.76c-.82,6.5,2.62,11.72,8.52,13.03,5.4,1.2,10.45.93,14.17-4.13.36-.48,1.19-.84,1.81-.85,6.32-.06,12.64-.04,19.34-.04h0ZM316.67,409.92c-1.32-6.35-7.12-10.29-13.51-9.47-6.19.79-10.62,4.74-10.48,9.47h23.99Z" style="fill: #ff4d00;"/>
  <path d="M522.66,388.34h21.16c.16.29.31.46.31.61-.06,13.43.41,26.88-.38,40.27-.68,11.52-6.75,17.91-17.77,20.78-9.54,2.49-19.18,2.42-28.68-.16-10.8-2.92-17.04-10.65-17.36-22.19-.36-12.78-.1-25.58-.1-38.37,0-.26.12-.51.23-.93h21.31v3.08c0,10.31,0,20.61.05,30.92,0,1.73.21,3.5.63,5.18.95,3.75,3.37,6.04,7.21,6.47,1.69.19,3.43.21,5.13.04,4.32-.45,6.93-2.89,7.72-7.23.36-1.98.53-4.01.55-6.02.05-9.75.03-19.5.03-29.26v-3.19h-.02Z" style="fill: #ff4d00;"/>
  <path d="M227.63,388.21h6.73v-18.2h21.47v18.04h11.95v18.11h-11.81v43.35h-21.54v-43.1h-6.8v-18.2h0Z" style="fill: #ff4d00;"/>
  <path d="M61.06,407.86c-11.53-5.24-18.08-4.63-22.92,1.94-4.13,5.63-3.89,13.89.58,19.16,4.95,5.85,12.75,6.34,22.31,1.19,0,5.85.05,11.49-.06,17.13,0,.56-.88,1.34-1.51,1.6-12.41,4.94-24.26,3.79-34.73-4.67-10.49-8.47-13.8-19.96-10.66-33.08,3.16-13.14,11.83-20.9,24.57-23.99,6.92-1.69,13.83-1.39,20.39,1.72.86.41,1.9,1.6,1.92,2.44.17,5.41.09,10.84.09,16.56h0Z" style="fill: #ff4d00;"/>
  <path d="M600.41,386.8v20.93c-2.8-.48-5.42-1.26-8.06-1.34-9.76-.32-15.13,4.68-15.47,14.6-.28,8.36-.15,16.72-.19,25.09v3.27c-.74.16-1.17.32-1.6.33-6.5.02-13,0-19.69,0v-61.34h21.26v8.9c3.08-3.61,6.18-6.93,10.54-8.14,4.19-1.16,8.58-1.53,13.22-2.31h0Z" style="fill: #ff4d00;"/>
  <path d="M391.75,387.56v20c-3.2-.42-6.3-1.15-9.4-1.17-8.2-.05-13.39,4.63-13.88,13.01-.51,8.89-.36,17.83-.49,26.74-.02,1.08,0,2.15,0,3.37h-21.22v-61.15h21.12v9.05c5.96-8.39,14.13-10.67,23.87-9.85h0Z" style="fill: #ff4d00;"/>
</svg>