<?xml version="1.0" encoding="UTF-8"?>
<svg id="Capa_1" xmlns="http://www.w3.org/2000/svg" version="1.1" viewBox="0 0 892.67 118.52">
  <!-- Generator: Adobe Illustrator 30.2.1, SVG Export Plug-In . SVG Version: 2.1.1 Build 1)  -->
  <defs>
    <style>
      .st0 {
        fill: #ff4d00;
      }
    </style>
  </defs>
  <path class="st0" d="M285.45,19h-27.06v.37c.99,1.53,1.39,3.55,1.39,5.56,0,3.31-1.99,9.07-2.73,11.56l-17.12,49.49c-2.23,6.32-2.59,8.12-6.85,14.27v.37h22.58v-.37c-1.1-2.01-1.65-3.66-1.65-5.84,0-3.13,1.42-7.56,2.28-10.04l1.17-3.49h24.54s1.56,4.46,2.47,7.1c.8,2.35,1.05,4.62,1.05,6.23,0,1.84-.32,3.23-1.25,6.06v.37h32.74v-.37c-3.55-4.45-5.13-9.43-8.11-17.37l-23.45-63.88v-.02ZM261.84,67.66l7.53-22.79h.12l7.92,22.79h-15.57ZM219.19,82.51c0,7.19.52,13.89,2.89,17.74v.37h-31.86v-.37c3.22-5.42,2.65-11.04,2.65-17.49v-13.42l.02-3.14-4.49-8.43-15.36-28.85c-2.1-3.96-3.67-6.58-6.95-9.55v-.37h27.93v.37l16.57,33.7s3.71-7.53,4.58-9.31c1.69-3.45,3.78-7.71,4.55-9.25,1.38-2.76,2.86-6.4,2.86-9.43s-.92-4.42-1.71-5.44v-.63h22.22v.37l-23.89,47.63v15.51h0ZM380.58,100.63h-57.52v-.37c2.4-5.23,2.65-9.53,2.65-17.37v-46.26c0-9.52-.9-13.37-2.65-17.25v-.37h31.21v.37c-1.99,5.6-2.22,8.89-2.22,17.5v46.88c3.53.62,7.73,1.07,12.11,1.07,9.44,0,14.36-.8,17.88-2.43h.76s-2.22,18.23-2.22,18.23ZM127.9,17.01c-25.47,0-43.02,15.68-43.02,37.95,0,32.47,34.49,37.12,46.35,26.6l-2.02-4.2c-10.44,2.15-19.93-5.87-19.93-23.63,0-14.44,7.58-23.46,18.21-23.46,12.14,0,19.83,12.3,19.83,29.98,0,20.13-11.54,35.38-33.34,35.38-24.78,0-43.61-19.53-55.03-39.03,12.85-5,20.37-14.6,20.37-27.75,0-17.01-12.74-28.85-35.89-28.85H0v.38c1.74,3.87,2.64,10.84,2.64,20.36v62.15c0,7.83-.24,12.14-2.64,17.37v.37h32.5v-.39c-2.09-5.05-2.7-11.54-2.7-17.36,0-9.65.01-17.19.01-17.19h3.96c22.55,33,48.14,46.67,75.56,46.67,39.64,0,63.11-24.97,63.11-52.95,0-23.38-17.97-42.4-44.54-42.4M29.8,52.67V15.4h8.92c10.5,0,14.9,6.13,14.9,15.99,0,11.95-7.05,21.28-18.27,21.28h-5.55ZM574.11,19.37c-1.73,3.87-2.6,7.73-2.6,17.24v50.76c.15,5.18.7,8.74,2.6,12.88v.37h-18.99c-4.05-1.72-8.5-6.7-14.16-12.86-4.63-5.03-26.69-30.24-26.69-30.24h-.37v24.25c-6.29.57-13.99,2.23-19.76,3.85v-49.02c0-9.51-.89-13.35-2.65-17.23v-.37h23.03l37.17,44.57.03-.14v-26.82c0-9.51-.9-13.37-2.64-17.24v-.37h25.03v.37h0ZM536.05,100.64c-32.33.29-40.01,17.88-81.07,17.88-19.71,0-37.42-5.13-37.42-5.13v-.38c2.4-5.23,2.65-9.48,2.65-17.31V20.73c0-9.52-.91-16.49-2.65-20.36V-.01h66.32l2.18,18.39h-.37c-4.9-1.92-11.08-2.58-19.75-2.58h-17.54v31.87h8.58c13.01,0,20.82-.94,22.82-1.43h.62v19.14h-.62c-2.71-.97-11.69-1.86-22.48-1.86h-8.73l.02,31.78s10.14,2.43,19.54,2.43c24.4,0,34.88-8.73,59.31-8.73.79-.02,1.36.03,2.19.02,4.53,5.6,8.66,9.98,10.58,11.61h-4.18ZM676.94,36.61v46.27c0,7.83.24,12.13,2.65,17.37v.36h-31.63v-.36c2.4-5.24,2.65-9.54,2.65-17.37v-46.27c0-9.52-.9-13.38-2.65-17.24v-.38h31.63v.38c-1.74,3.87-2.65,7.72-2.65,17.24M613.62,54.61h2.21c11.65,0,15.42-.84,17.22-1.29h.56v16.85h-.56c-2.43-.88-7.25-1.66-16.91-1.66h-2.52v13.99c0,8.15.43,13.74,2.9,17.74v.36h-31.91v-.36c2.41-5.24,2.64-9.54,2.64-17.37v-46.27c0-9.52-.9-13.38-2.64-17.24v-.38h54.4l2,16.49h-.37c-3.77-1.67-8.76-2.65-16.49-2.65h-10.54v21.78h0ZM748.44,83.67l-2.06,16.95h-55.98v-.36c2.41-5.24,2.65-9.54,2.65-17.37v-46.27c0-9.52-.9-13.38-2.65-17.24v-.38h54.4l2.02,16.49h-.38c-3.77-1.67-8.76-2.65-16.49-2.65h-10.57v19.23h2.23c11.65,0,15.42-.84,17.22-1.28h.56v16.84h-.56c-2.42-.87-7.24-1.67-16.91-1.67h-2.53v19.2c3.8.61,6.49.86,10.82.86,9.86,0,13.55-.63,17.62-2.36h.62-.01ZM892.67,62.33c0,27.87-20.51,50.01-54.79,50.01-26.56,0-34.96-11.65-67.95-11.7v-.02h-13.66v-.36c2.4-5.24,2.65-9.54,2.65-17.37v-46.27c0-9.52-.91-13.37-2.65-17.24v-.37h31.62v.37c-1.87,3.9-2.65,9.92-2.65,17.49v49.74c19.71,0,28.17,5.96,45.49,5.96,23.95,0,35.46-13.19,35.46-31.83,0-15.97-8.23-27.9-22.59-27.9h-9.23v50.51c-8.8.43-18.83-.76-26.34-3.38v-43.35c0-9.52-.91-13.37-2.66-17.24v-.37h36.95c30.92,0,50.37,18.8,50.37,43.34"/>
</svg>