<?xml version="1.0" encoding="UTF-8"?>
<svg id="Capa_1" data-name="Capa 1" xmlns="http://www.w3.org/2000/svg" viewBox="0 0 752.22 526.56">
  <path d="M752.22,283.09c-6.04,10.55-12.76,20.01-20.4,28.76-28.55,32.73-63.95,53.33-106.26,61.31-79.36,14.98-160.72-26.05-197.25-99.22-6.17-12.35-11.06-25.17-14.5-38.57-.45-1.76-.45-2.95,1.16-4.14,29.65-21.94,59.08-44.2,88.96-65.8,22.84-16.51,46.45-15.38,69.89-.81,11.67,7.26,21.01,17.03,29.1,28.18,7.7,10.62,15.19,21.47,23.6,31.49,18.77,22.34,42.49,37.12,70.07,45.73,17.64,5.51,35.57,9.59,53.75,12.66.46.08.92.2,1.87.4Z"/>
  <path d="M472.33,355.62c-15.67,8.11-31.7,13.8-48.52,17.03-34.59,6.64-68.48,3.94-101.33-9.04-43.31-17.12-75.8-46.81-97.71-88.46-6.66-12.66-11.56-26.03-15.17-39.9-.46-1.77-.28-2.89,1.3-4.07,28.83-21.37,57.58-42.83,86.41-64.2,8.24-6.11,17.18-10.79,27.38-12.55,15.81-2.73,30.4.96,43.71,9.51,6.41,4.11,12.06,9.43,18.09,14.17,1.97,1.55,2.54,3.46,2.49,6.01-.76,34.5,6.57,67.17,21.93,97.93,14.19,28.42,33.9,52.19,58.82,71.5.78.6,1.54,1.23,2.59,2.08Z"/>
  <path d="M268.42,356.44c-9.4,3.69-18.35,7.79-27.64,10.75-82.91,26.41-170.58-7.73-215.15-83.66-8.89-15.14-15.39-31.32-19.74-48.39-.41-1.61-.45-2.65,1.1-3.8,28.92-21.42,57.78-42.94,86.7-64.37,8.24-6.11,17.18-10.79,27.38-12.54,15.15-2.61,29.29.62,42.16,8.69,6.95,4.35,13.16,9.95,19.53,15.21,1.07.88,1.78,2.9,1.76,4.38-.81,60.9,20.24,112.63,62.97,155.19,6.35,6.33,13.42,11.93,20.94,18.55Z"/>
  <path d="M744.91,82.2c-8.53.74-16.87,1.85-25.24,2.11-12.07.38-24.19.72-36.23.03-14.37-.83-26.95-7.37-39.22-14.63-9.4-5.55-18.83-11.29-28.84-15.46-16.88-7.02-34.34-6-51.56-.65-9.85,3.06-17.22,9.71-23.28,17.98-8.34,11.36-14.49,24.01-20.77,36.59-1.52,3.05-3.24,6.04-4.44,9.22-4.88,12.92-13.73,22.7-23.63,31.74-25.34,23.14-52.61,43.78-80.09,64.16-.46.34-.99.58-1.54.9-11.48-67.08,20.66-163.09,115.58-201.03,89.12-35.62,179.05,5.71,219.27,69.05Z"/>
  <path d="M205.85,214.34c-8.51-52.92,7.7-128.52,73.61-177.82,62.26-46.58,140.01-44.44,192.28-15.88-7.35,6.58-15.04,12.9-22.06,19.93-7.04,7.05-13.4,14.8-20.26,22.47-2.68-1.45-5.7-3.11-8.75-4.73-19.3-10.25-39.41-11.07-60.01-5.04-9.04,2.64-16.22,8.25-22.14,15.59-7.53,9.33-13.08,19.92-18.52,30.56-3.88,7.59-7.75,15.2-11.24,22.98-3.31,7.38-7.99,13.63-13.61,19.27-15.57,15.6-32.64,29.4-49.94,42.92-12.1,9.46-24.43,18.61-36.67,27.88-.78.59-1.62,1.12-2.69,1.86Z"/>
  <path d="M268.23,20.67c-16.25,12.19-30.29,26.18-42.43,42.37-3.35-1.78-6.55-3.53-9.78-5.2-19.22-9.94-39.17-10.53-59.49-4.45-10.62,3.17-18.83,10.15-24.61,19.47-7.17,11.56-13.5,23.66-20.13,35.57-1.51,2.71-2.97,5.5-4.06,8.4-5.01,13.31-14.12,23.38-24.33,32.69-23.06,21.03-47.77,39.92-72.66,58.6-2.63,1.97-5.29,3.91-7.95,5.84-.14.1-.37.08-.56.11C-6.1,166.14,7.28,91.15,70.79,40.32,132.04-8.69,211.33-9.68,268.23,20.67Z"/>
  <path d="M439.97,389.23c7.67-1.71,15.37-3.43,23.31-5.21v47.22c.46-.08.8-.03.95-.18,12.85-12.82,38.21-10,48.62,10.28,9.6,18.7,2.39,42.62-15.68,50.88-8.63,3.94-17.5,4.29-26.09-.15-2.74-1.42-5.01-3.78-7.63-5.82v6.47h-23.47v-103.49ZM492.69,459.56c.07-9.08-5.87-15.31-14.66-15.39-9.15-.08-15.29,5.94-15.33,15.02-.04,9.07,5.84,15.11,14.81,15.24,8.94.13,15.11-5.91,15.17-14.87Z"/>
  <path d="M130.3,431.58v-5.82h23.4v67.01h-23.37v-6.98c-9.26,10.2-20.13,11.46-31.62,7.21-12.42-4.59-19.33-14.36-21.45-27.45-2.16-13.35,1.43-25.01,11.37-34.22,10.15-9.41,28.37-11.9,41.67.24ZM116.07,444.18c-8.92,0-15.06,6.12-15.09,15.07-.03,9,6.03,15.13,14.98,15.17,9,.03,15.05-6.02,15.05-15.06,0-9.04-6.04-15.17-14.95-15.18Z"/>
  <path d="M662.59,425.54c8.8,0,17.03-.08,25.26.1,1,.02,2.36,1.24,2.89,2.26,5,9.5,9.86,19.07,14.77,28.62.49.96,1.03,1.89,1.77,3.27.7-1.26,1.24-2.16,1.71-3.11,4.82-9.59,9.67-19.17,14.38-28.81.88-1.8,1.89-2.41,3.86-2.38,7.83.12,15.66.05,23.95.05-.54,1.16-.9,2.04-1.34,2.88-16.76,31.89-33.54,63.76-50.23,95.68-.99,1.9-2.1,2.48-4.12,2.46-7.63-.11-15.26-.04-23.33-.04.52-1.19.87-2.16,1.35-3.06,6.55-12.43,13.07-24.86,19.71-37.24.97-1.81.97-3.13-.04-4.93-9.65-17.36-19.19-34.78-28.76-52.18-.56-1.03-1.08-2.08-1.84-3.56Z"/>
  <path d="M193.01,492.73h-23.34v-66.97h23.36v8.08c.82-.77,1.13-.98,1.32-1.27,7.34-10.74,22.38-10.69,31.05-7.28,8.95,3.52,13.02,11.08,13.41,20.07.67,15.5.31,31.05.37,46.57,0,.18-.14.36-.31.77h-23.06c0-1.1,0-2.17,0-3.24,0-10.19.03-20.37-.01-30.56-.01-2.41-.16-4.84-.43-7.23-.59-5.25-3.05-8.07-7.7-9.05-5.19-1.1-10.47.91-12.54,5.26-1.09,2.29-1.85,4.97-1.91,7.49-.24,11.19-.17,22.39-.21,33.58,0,1.19,0,2.38,0,3.77Z"/>
  <path d="M368.27,472.07c-2.32,9.1-7.47,15.39-15.38,18.98-13.69,6.23-27.44,5.69-40.6-1.52-11.79-6.46-17.63-20.63-15.84-35.2,2.56-20.89,18.25-31.42,37.69-30.98,8.72.2,16.91,2.27,23.66,8.28,9.28,8.27,11.49,19.25,11.47,31.65-8.42,0-16.6,0-24.78,0s-16.22,0-24.28,0c-.9,7.12,2.87,12.85,9.34,14.28,5.92,1.32,11.46,1.02,15.53-4.53.39-.53,1.3-.92,1.98-.93,6.93-.07,13.86-.04,21.2-.04ZM347.13,449.35c-1.45-6.96-7.8-11.28-14.81-10.38-6.78.87-11.64,5.2-11.49,10.38h26.3Z"/>
  <path d="M572.93,425.7h23.19c.17.32.34.5.34.67-.07,14.72.45,29.47-.42,44.14-.75,12.63-7.4,19.63-19.48,22.78-10.46,2.73-21.02,2.65-31.44-.17-11.84-3.2-18.68-11.67-19.03-24.32-.39-14.01-.11-28.04-.11-42.06,0-.28.13-.56.25-1.02h23.36c0,1.22,0,2.3,0,3.38,0,11.3-.01,22.59.06,33.89.01,1.9.23,3.84.69,5.68,1.04,4.11,3.69,6.62,7.9,7.09,1.85.21,3.76.23,5.62.04,4.73-.49,7.6-3.17,8.46-7.92.39-2.17.58-4.4.6-6.6.06-10.69.03-21.38.03-32.07,0-1.09,0-2.18,0-3.5Z"/>
  <path d="M249.52,425.56h7.38v-19.95h23.53v19.78h13.1v19.85h-12.95v47.52h-23.61v-47.25h-7.45v-19.95Z"/>
  <path d="M66.94,447.1c-12.64-5.74-19.82-5.07-25.12,2.13-4.53,6.17-4.26,15.23.64,21,5.43,6.41,13.98,6.95,24.46,1.3,0,6.41.05,12.6-.07,18.78-.01.61-.96,1.47-1.66,1.75-13.6,5.41-26.59,4.15-38.07-5.12-11.5-9.29-15.13-21.88-11.68-36.26,3.46-14.4,12.97-22.91,26.93-26.3,7.59-1.85,15.16-1.52,22.35,1.88.94.45,2.08,1.75,2.11,2.68.19,5.93.1,11.88.1,18.15Z"/>
  <path d="M658.15,424.01v22.94c-3.07-.53-5.94-1.38-8.84-1.47-10.7-.35-16.59,5.13-16.96,16-.31,9.16-.16,18.33-.21,27.5,0,1.18,0,2.37,0,3.58-.81.17-1.28.35-1.75.36-7.12.02-14.25.01-21.58.01v-67.24h23.3v9.76c3.38-3.96,6.77-7.6,11.55-8.92,4.59-1.27,9.41-1.68,14.49-2.53Z"/>
  <path d="M429.43,424.84v21.92c-3.51-.46-6.91-1.26-10.3-1.28-8.99-.05-14.68,5.07-15.21,14.26-.56,9.75-.4,19.54-.54,29.31-.02,1.18,0,2.36,0,3.69h-23.26v-67.03h23.15v9.92c6.53-9.2,15.49-11.7,26.17-10.8Z"/>
</svg>