<?xml version="1.0" encoding="UTF-8"?>
<svg id="Capa_1" xmlns="http://www.w3.org/2000/svg" version="1.1" viewBox="0 0 786 345.96">
  <!-- Generator: Adobe Illustrator 30.2.1, SVG Export Plug-In . SVG Version: 2.1.1 Build 1)  -->
  <defs>
    <style>
      .st0, .st1 {
        fill: #ff4d00;
      }

      .st1 {
        fill-rule: evenodd;
      }
    </style>
  </defs>
  <path class="st1" d="M335.42,173.28l.15-.48-.63-.37s-1.18-2.04-1.07-2.89c.11-.86.21-2.06,1.39-2.59,1.18-.54,2.44-2.92,2.44-2.92,0,0,.69.13,1.55-2.14s1.84-4.52,2.59-5.49,2.66-2.27,3.33-3.88c.66-1.61,1.22-1.72.66-1.93-.56-.21-1.2-1.52-2.7-.66s-4.63,4.18-5.16,5.06c-.54.88-2.06,1.84-2.27,2.91-.22,1.07-2.61,5.96-2.9,6.12-2.27,1.22-8.08-11.82-12.07-11.71-5.1.14-6.31,1.06-10.33.65-5.52-.57-11.53-3.13-13.46-4.63s-4.2-2.25-4.74-2.25-4.2-.43-7.74-.45c-2.61,0-9.69-1.07-10.24-1.72-2.98-3.45.82-3.57,14.21-6.88,5.72-1.41,8.51-7.97,12.49-9.9,1.89-.91,3.02-1.33,5.06-1.85,3.55-.9,8.62-.53,9.37-.64s9.37,2.16,16.03,6.79c6.58,4.57,11.34,14.85,15.09,15.92,3.75,1.07,4.52.86,6.02.11.14-.07.29-.11.43-.12,1.2-.34,4.64-1.34,6.8-2.3,2.66-1.18,4.15-2.07,4.15-2.07,0,0,3.85-6.81,5.62-10.95,1.78-4.15,8.88-29.9,9.47-32.27l3.55-14.21s3.55-10.66,5.92-12.73c2.37-2.07,11.25-9.77,12.43-12.14s15.99-22.2,18.06-26.94c2.07-4.74,13.62-27.83,13.62-27.83l4.14-5.63s2.07-.89,2.66.59,5.92,3.55,2.07,12.14c-3.85,8.59-10.66,23.66-10.66,23.66,0,0,3.55-2.34,4.74-3.83,1.18-1.48,2.07-3.55,2.07-3.55l9.71-17.82s3.52,3.71,3.27,6.77c-.25,3.05-.55,9.86-5.87,18.75-5.33,8.88-18.2,24.93-18.2,24.93l.44,2.01,25.14-30.02s1.79,7.52-1.17,14.03c-2.96,6.52-5.75,12.49-5.75,12.49l3.07-1.75s-1.17,9.69-4.13,13.83c-2.96,4.15-4.84,6.33-4.84,6.33l.1,1.37,3.26-1.78s-1.48,5.62-2.96,8.29c-1.48,2.66-1.62,5-3.62,6.2s1.29,1.68,1.29,1.68c0,0-2.45,7.7-4.06,8.2s1.28.6,1.28.6c0,0-2.95,6.43-5.29,7.75-2.34,1.33,1.58,1.25,1.58,1.25,0,0-2.62,4.45-2.68,6.26-.06,1.81,1.57-1.74,1.57-1.74l-3.21,8.47s13.31-11.12,16.87-12.01c3.55-.89,16.8-3.74,19.17-4.93,2.37-1.19,5.35-3.34,6.83-4.53,1.48-1.19.59,0,2.07-1.48s11.58-11.52,11.58-11.52l6.95-6.28,3.5-4.75,6.27-7.98s2.07-.59,2.07.59-.92,7.44-2.09,10.09l1.34.08s6.97-8.69,7.86-9.87c.89-1.18,2.67-1.48,2.67-1.48,0,0,.37,7.67-4.4,15.08l1.74.31,3.85-4.14s1.18,4.74-7.11,14.8c-8.29,10.07-6.22,7.99-6.22,7.99,0,0,.61-1.33,1.34.07.73,1.41,1.62,4.37-4.6,10.58-6.22,6.22-6.78,3.53-6.78,3.53l.57,2.69s-9.5,5.75-10.97,8.65c-1.47,2.89-10.35,12.37-12.13,13.85-1.78,1.48-13.49,7.47-13.49,7.47,0,0-7.24,3.48-8.42,4.37-1.19.89-8.29,5.33-8.29,5.33l-4.14,1.78-2.41,1.18,1.52,1.78s2.24,1.73,3.85,2.96c1.61,1.23,4.5,1.31,7.16,3.09s6.69,1.93,6.69,1.93c0,0,6.89.21,8.37.21s.73-.16,3.75-.42c3.02-.25,6,4.07,6,4.07,0,0,1.19.3,3.26,2.37,2.07,2.07,2.66,2.37,2.66,2.37,0,0,.89,3.55.89,5.03s.59.89.82,1.96-.23,3.67-1.42,6.04c-1.18,2.37-.59,2.96-2.07,5.03-1.48,2.07-1.78,1.48-1.78,1.48,0,0-1.78,1.19-3.15,2.78-1.38,1.59-2.17.48-2.17.48l-2.36,1.81-.39,2.99s.97.82.68,2c-.3,1.18-.3,2.37-.3,2.37l1.76,2.12-2.06-.05-3.26-.59s-2.07-.59-5.92-1.78c-3.85-1.18-4.15-2.07-6.22-2.66s-2.96-1.48-4.33-2.85c-1.37-1.37-1.3-.41-3.67-.7-2.37-.3-2.07-2.37-3.25-3.26-1.19-.89-4.15-5.62-5.03-7.4-.89-1.78-7.99-1.48-7.99-1.48,0,0-.89-.89.3-2.37,1.18-1.48,2.07.59,3.85,0s4.74-.3,6.51-.59c1.78-.3,1.94-1.43,1.94-1.43l4.15-.96s4.27-2.06,5.19-1.51c.92.54,1.91-3.78,1.91-3.78l.46-3.1-1.21-3.44s-2.67-2.65-2.87-4.05c-.2-1.4-2.77-.38-2.77-.38l-3.26.89-1.98.12s-.39-.71,1.14-2.03c.84-.73-4.12-3.13-8.74-5.15-1.88.18-4.45-.48-5.81-1.03-2.58.53-4.88.02-8.07.64.31-.57.54-1.15.6-1.67.24-1.92.64-2.29,1.12-3.91-1.11-.2-2.22-1.01-2.22-1.01l-1.46.71-2.66-.53s-2.23.53-3.8.38c-.74.38-3.99-.14-5.51-.24-1.52-.1-3.94-1.1-4.89-1.51-.96-.41.47-.31,1.41.25s.26-1.04,1.28-.5,1.8-1.19,4.2-1.19,3.77-.24,4.74-.48c.96-.24.87-1.7.87-1.7,0,0-.87-1.18-1.96-1.38-1.1-.2-1.07-2.61-1.07-2.61l-.62-1-1.72-1.81-2.16.41-1.13.94s-1.69-.7-2.65-.46c-.96.24,0-1.13.8-1.17s-.56-2.36-.56-2.36l-1.68-1.92-2.21-.34s-.36.17-4.14.58c-3.78.41-1.2,0-1.2,0h-2.4s-2.81.96-3.99,1.02-1.4,1.14-1.4,1.14l3.05,1.2s2.33.24,4.26,1.37c1.92,1.13,1.68,1.2,2.82,3.36,1.13,2.16,1.19,1.17,1.19,1.17,0,0,.73,2.61.01,3.57s-.48.96-2.01.45c-1.53-.51-1.04-.21-1.28-1.17-.24-.96-2.16-2.16-2.16-2.16,0,0-.48-1.61-1.37-2.33-.89-.72-1.2-.48-2.31-.6-1.11-.12-2.67-.6-3.39-.4-.72.19-.93.33-.93.33l.21,2.38s-.48.14-2.16-.27c-.97-.24-1.04-.36-1.29-.52l-.56-.03c-2.58-.18-3.05,0-3.84.18s-1.26.79-2.91.68-1.47.64-5.06-.32c-1.38-.37-1.92-.62-2.1-.72.1.1.24.33.05.72-.54,1.08-2.33,2.04-3.23,3.12-.9,1.08-.97,1.43-2.05,2.23-1.08.79-.36.36-3.12,2.51s-.72,2.04-1.43,3.3c-.72,1.26-.9,1.61-1.26,2.69-.36,1.07-.54,1.69-.54,1.69,0,0,.54,2.33,0,3.84s-.18,3.23.18,5.27c.36,2.05.54,2.15.9,3.23s1.97,2.58,1.97,2.58l5.71,4.74,3.41,1.97s8.4,3.3,10.64,3.58c2.24.28,4.36,1.33,5.08,1.69s2.51.36,5.27.36,4.38.43,6.71.43,5.88.23,6.78-.18c.9-.41,3.59-.43,5.45-.43s4.38-.54,5.63-.54,3.84-.72,3.84-.72c0,0,1.08-2.51,1.26-3.23.18-.72-.26-1.84-.26-1.84l-1.35-1.1s.36-.72,1.26-.9c.9-.18,3.36-.64,3.36-.64,0,0,1.01-.69,2.27-.25,1.26.43,1.26,1.43,1.69,3.05.43,1.62,1.44,1.26,1.62,2.23s1.32,3.36,1.32,3.36l1.19,1.2,1.34,6.8,12.31,2.85.55,1.44.62,2.12,1.55.97.41.57-.36,1.25s.54,1.97,1.08,2.76c.54.79-.07,1.11-.07,1.11l-3.41-1.54-5.1-2.15-5.81-3.12-3.48-3.23-2.15-4.92-1.36-3.95-1.58-1.93s-.03-.66-1.97-.18c-57.56,14.21-78.17-23.7-78.17-23.7M467.47,139.77c-.45,1.28-1.35,1.2-1.36,1.25,0,.02.15.06.55.23,1.37.57.96.64,1.61-.32s.65-1.68.65-1.68c0,0-.81-1.28-1.45.53h0ZM464.18,139.1s-1.6,1.27-1.6,2.23v1.68s.96.96,1.2,0c.24-.96.96-2.88.96-2.88l-.56-1.04h0ZM458.44,136.88s-.84.44-.6,1.4c.24.96.25,2.43.85,1.7s-.53-.49.84-1.45c1.37-.96,1.37-1.44,1.37-1.44l-1.39-.48-1.07.28h0ZM454.3,138.76s-.48,2.33-.96,3.53c-.48,1.2-.96,2.64-.96,2.64l-.37,1.72.85.85.72,1.68s2.07,2.76,1.96,1.62c-.11-1.14.61-2.1.61-2.1,0,0-.24-2.37,1.2-2.15s2.42.47,2.5-.46c.08-.93.08-.45.56-2.37s.96-2.81.96-2.81v-1.68c-1.85.72-.89,2.33-2.81,2.81-1.92.48-1.2.96-2.16.48-.96-.48-1.15-1.37-1.15-1.37l-.94-2.4h-.01ZM443.98,136.93c-1.07,1.59-1.24,3.78-1.24,3.78,0,0,.19-1.06,1.02-1.26,0,0,1.52-.26,2.34-.11s1.06-1.54,1.06-1.54l1.08-2.06-2.02,1.06s-1.17-1.47-2.24.12h0ZM438.17,140.92c-1.2,2.33,1.92,2.57,1.92,2.57,0,0-.17,0,.24-1.2s.41-2.09.41-2.09c0,0-1.37-1.61-2.57.72h0ZM447.16,148.47c0,.96,1.44,3.78,1.44,3.78l1.79.77,1.26-.77.48-1.2.23-2.35-2.15-.46s-3.05-.72-3.05.24h0ZM439.61,152.01s-.55,1.68,1.37,2.16c1.92.48.72,1.13,2.4,1.13h2.57l2.7-1.28-2.64-1.36-1.31-2.38-2.05.53-3.05,1.2h0ZM433.43,154.17c1.44,1.85,2.16,3.05,2.16,3.05,0,0,1.61.96,2.57.96s1.78.7,1.78.7l1.52-1.91s.85-1.83-.98-1.84c-1.83,0-2.31-.25-3.27-.97s-2.09-.72-2.09-.72c0,0-3.12-1.13-1.68.72h-.01ZM427.75,156.09c-.5,2.34.57,4.41.57,4.41l3.19-.7.96.48s1.2,1.13,1.2-.48-.96-1.85-1.68-2.81c-.72-.96-1.85-1.85-3.05-1.85s-.69-1.39-1.19.95h0ZM405.25,144.22c-3.54,1.37-3.78,1.85-3.78,1.85,0,0-1.86.5-.45,1.09,1.41.59,3.5.35,3.5.35,0,0-.48-1.2.96-1.44s2.09-1.37,2.09-1.37c0,0,1.2-1.85-2.33-.48h.01ZM388.46,138.82l-.41.07c-1.37.24-1.45.35-2.4.41-1.79.12-4.57-.59-4.57-.59,0,0,.97,2.06,1.93,2.54s2.57,1.2,3.46,1.85c.89.65,3.21-.2,3.21-.2l2.52-.58s1.17-1.07,1.71-2.78c.54-1.71-.23-.86-.23-.86,0,0-.89-.48-1.85-.24-.2.05-.43.1-.69.15l-2.69.24h.01ZM390.46,137.49c.42,0,1.07.07,1.07.07l1.2-1.2.78-1.45-2.22.13s0-.54-2.41-.54-2.81.24-2.81.24l-3.05,1.2-.13,1.21,2.86.77s2.87-.49,4.72-.43h-.01ZM382.89,130.78c-1.25.05.6,1.56,1.38,1.44s1.31.36,2.27.6,1.68.24,2.08-.92,2.42.2,3.62-.04c1.2-.24,1.72-.05,1.72-.05,0,0,.85-2.04.37-3-.48-.96-.52-.72-.52-.72l-3.26-.72-2.56,1.31-1.94.86s-1.92,1.2-3.17,1.25h.01ZM386.07,125.27l-.96,2.33s1.68-.24,2.64-.72c.96-.48,1.61-.41,2.57-.41s1.2-.24,1.2-.24l1.78-.11.8-1.81.14-1.12-1.27-.56-2.16.48s-1.44.96-2.81,1.44-1.92.72-1.92.72h-.01ZM384.96,120.62c-.87.32-.33.88-.33.88l-1.13,1.61s1.85,0,3.62.2,2.01-2.05,3.45-2.77c1.44-.72.48-.24,2.81-.72s.72-1.68.72-1.68l-.63-1.09-1.6.65s-.58.2-1.54.44-3.53,1.2-3.53,1.2c0,0-.96.96-1.83,1.29h-.01ZM388.16,109.86l3.53,2.16,3.24-1.53s1.5-.15,3.42-2,.48-1.68.48-2.88-1.44-.96-1.44-.96c0,0-.72.96-1.85,1.68s-.48.72-3.85,1.68c-3.36.96-3.53,1.85-3.53,1.85ZM390.32,103.2l.91,2.82,2.62-.65,3.24-1.53s1.5-.15,3.42-2,.48-1.68.48-2.88-1.44-.96-1.44-.96c0,0-.72.96-1.85,1.68s-.48.72-3.84,1.68-3.54,1.85-3.54,1.85h0ZM392.24,98.6l.53,1.17s.27,0,1.25-.72,1.38-.51,2.35-.8c.97-.3,1.25-.51,2.09-1.23s.29-.52,1.12-1.04c.83-.51.55-.2,1.11-.4.55-.2.72-1.99,1.15-2.72s.43-1.15-.33-1.9c-.76-.74-.75.3-1.58.7-.83.41-.83.3-2.23,1.33-1.4,1.03-1.41,1.66-2.11,2.71-.71,1.04-.98,1.04-2.09,1.36s-1.27,1.54-1.27,1.54h0ZM396.22,88.14l-.22.21c-1.22,1.24-1.13,1.31-1.66,2.45-.54,1.14-.81,1.18-1.85,1.67s-1.01,1.72-1.01,1.72l.71,1.07s.27-.04,1.13-.9c.85-.87,1.29-.71,2.2-1.16.91-.45,1.15-.7,1.87-1.54.72-.85.2-.56.94-1.2s.52-.28,1.03-.57c.52-.28.4-2.08.71-2.87s.23-1.18-.62-1.82c-.44-.33-2.05,1.89-2.33,2.11l-.9.84h0ZM398.15,84.76c.74-.64.52-.29,1.03-.57.52-.29.57-1.61.88-2.4s.25-1.21-.62-1.82c-.87-.62-.69.41-1.45.94s-.77.43-1.99,1.66c-1.22,1.24-1.13,1.86-1.66,3.01-.54,1.14-.81,1.18-1.85,1.67s-1.01,1.72-1.01,1.72l.54.6s.27-.04,1.12-.9c.85-.87,1.31-.67,2.2-1.16,1.05-.58,2.07-2.1,2.81-2.74h0ZM389.81,84.94l.8,1.01s.27-.06,1.04-1c.77-.94,1.22-.83,2.09-1.35.87-.53,1.09-.79,1.73-1.7.64-.9.15-.58.84-1.28s.49-.33.98-.66c.49-.33.22-2.11.46-2.92s.14-1.22-.78-1.76-.65.47-1.36,1.06c-.71.6-.73.49-1.84,1.83-1.1,1.34-.96,1.96-1.4,3.14-.43,1.18-.7,1.25-1.7,1.82-1,.58-.86,1.8-.86,1.8h0ZM392.73,73.41s-1.06.78-3.28,3.3c-1.5,2.15-3.93,9.17-4.33,10.38-3.21,14.36-5.64,27.57-7.08,29.67-1.44,2.1-2.64,7.31-2.64,7.31l-2.09,5.7-1.68,7.55s-1.51,2.33-2.16,4.74c-.65,2.4-.89,4.26-.89,4.26l-1.44,2.4,2.33.48s1.58-.59,1.51.51c-.07,1.1,1.37,1.82,1.37,1.82,0,0-.01-.47,1.88-1.04,1.9-.57,3.19,0,1.82-1.24s-2.26-1.8-2.26-3.18,1.8-2.18,1.22-3.34c-.57-1.16-3.42-4.35-.32-2.15,3.11,2.2,3.47,2.09,3.47,2.09.59-2.23.12-3.19.12-4.15s-.24-.17-.24-2.81-.48-.79,0-2.88c.48-2.09.17-1.13,1.13-2.81s1.72-2.69,1.72-2.69c0,0-1-1.08-.27-2.52.72-1.44,1.92-2.09,2.4-3.05.48-.96,1.6-2.06.8-2.47-.8-.41-1.76-2.99-1.28-4.19.48-1.2,3.29-12.53,3.29-12.53,0,0-2.25-1.57-1.13-2.59,1.13-1.02,1.37-8.57,1.37-8.57,0,0,.24.17.72-1.92s2.17-2.72,2.37-3.97c.2-1.25.92-3.58.92-3.58l2.64-8.51v-.02ZM402.05,139.56c-.89,1.04,1.04,2.51,1.04,2.51l1.48-.89,1.18-1.93s.89-1.04,1.33-1.92c.44-.89-.89-.59-.89-.59l-1.92.74s-1.33,1.04-2.22,2.07h0ZM400.13,132.16c-1.63,1.63-1.63,3.7-1.63,3.7,0,0,1.48.3,2.07.59.59.3.44,0,1.33-.15.89-.15,1.63-.89,1.63-.89l1.33-.89s.45-.44,1.63-.74c1.19-.3.74-.74,1.63-1.63s.3-.59.45-1.33c.15-.74-.89-1.92-.89-1.92,0,0-.89.3-2.52.45-1.63.15-3.41,1.18-5.03,2.81h0ZM400.13,119.28c-.44.59.15,3.55-.15,4.44-.12.37-.17.53-.24.68-.11.22-.27.4-.79,1.09-.89,1.19-.3,1.19.4,2,.69.81,1.38,1.26,2.41,1.26s3.41-2.07,3.41-2.07c0,0,.44-1.04.44-1.63s-.3-1.78-.3-1.78l-.15-1.18s1.18-2.07,1.63-2.67c.44-.59.44-.3,1.22-1.17.78-.87.85-1.2.7-2.09s-.89-.59-.89-.59l-1.92.74s-1.33.15-2.07.3c-.74.15-3.25,2.07-3.7,2.66h0ZM399.53,110.77c-.6.52-.43,3.62-.43,3.62,0,0,2.22,0,4.29-.15s3.55-1.04,3.55-1.04c0,0,2.52-1.48,3.11-2.22s-.74-1.92-.74-1.92c0,0-1.33.3-2.22.59-.89.3-1.48-.3-3.7,0s-3.26.59-3.86,1.11h0ZM405.46,105.66c-.89.59-.44,1.92-.44,1.92l1.33.3s.3,0,.89-.89c.59-.89,1.48-1.33,2.07-2.22s.15-.89.15-1.48-.45-.15-1.19.15-1.92,1.63-2.81,2.22ZM405.46,100.92c-.59,1.18-.3,2.22-.3,2.22l2.22-1.48c.89-.59,2.37-1.63,3.4-2.66,1.04-1.04.59-1.93.59-1.93,0,0-.45-.15-1.19.15s-2.51,1.48-2.51,1.48c0,0-1.63,1.04-2.22,2.22h.01ZM406.98,91.19c-2.03,1.66-.93,5-.93,5l1.78-.44c1.18-.3,2.81-.89,4-2.22,1.18-1.33,1.04-1.48,1.63-2.81.59-1.33.74-2.22.3-3.7-.44-1.48-.59-.3-1.78.3-1.18.59-.89.59-2.07,1.04-1.18.44-.89,1.18-2.92,2.85v-.02ZM404.86,83.46c-.59,1.18.15,2.51.15,2.51,0,0,1.33.44,1.78.51.45.06-.15-.65,3.29-2.34,3.44-1.69.7-.53,2.03-1.27s.59-1.19.28-1.69c-.31-.51-.42-1.86-.42-1.86,0,0-1.04-.15-2.22.15s-1.92.59-2.66,1.18c-.74.59-1.63,1.63-2.22,2.81h0ZM402.79,77.53l.69,1.89s.29.81,1.49-.39c1.2-1.2,1.68-.76,2.88-1.28,1.2-.51,2.05-.6,3.08-1.8,1.03-1.2.77-1.12,1.8-1.98s-.15-1.25.54-1.59.86-3.26,1.37-4.47c.52-1.2.52-1.89-.45-3.08-.96-1.19-.92.51-1.95,1.19-1.03.69-1.03.52-2.75,2.23-1.72,1.72-4.7,3.55-5.42,6.07-.41,1.42-1.28,3.2-1.28,3.2h0ZM399.09,72.06l.59,1.63s.3,0,1.33-1.04c1.04-1.04,1.48-.74,2.52-1.19,1.04-.44,1.33-.74,2.22-1.78s.3-.74,1.19-1.48c.89-.74.59-.3,1.18-.59.59-.3.74-2.81,1.18-3.85.45-1.04.45-1.63-.39-2.65-.83-1.03-.8.43-1.69,1.03-.89.59-.89.45-2.37,1.92-1.48,1.48-1.48,2.37-2.22,3.85-.74,1.48-1.04,1.48-2.22,1.96-1.18.48-1.33,2.19-1.33,2.19h.01ZM290.04,138.52c.22.54.08.86.84,1.4s.8,1.93.8,1.93l.93,1.2s.98.21,1.2-.43.43-.77.64-1.73c.21-.97.75-1.4.21-1.93-.54-.54-1.52-.97-1.84-1.18-.32-.22-2.14.11-2.47.11s-.54.11-.32.64h.01ZM276.05,141.76s.32.64.64.75,1.72.32,2.24.2c.53-.12,1.1,0,1.21.33s.43.21.86.32,1.61.21,3.77.43c2.16.22,2.68.11,4.29,0,1.61-.11.55-.43.77-1.29.21-.86-.88-.96-1.52-1.39-.64-.43-.75-.77-2.04-1.31s-.96.22-2.74.37-1.14-.05-4.05.4c-2.91.45-3.43,1.18-3.43,1.18h0ZM300.05,137.88c-.32.75.11,1.61.11,1.61,0,0,.64.54,1.5,1.63.86,1.09,0,1.29,1.39,1.18s2.7,0,3.56.11,1.07,0,1.69.18,1.22.14,1.54.03,1.07-.43,1.93-.75.86,0,1.84.43.43,0,1.07,0,1.07-.75,1.39-.86.97-.55,1.74-.77c.77-.21,1.18-.11,1.29.34.11.45.75,1.4,1.07,1.72s.64-.97,1.61-.64c.96.32.66.64,1.2.54.54-.11.54-1.18.64-2.48.11-1.31.54-.75.86-1.18.32-.43.11-.97-.43-1.5-.53-.54-.75-.96-.86-1.95-.11-.98-.86-.54-1.31-.64-.45-.11-.86-.21-1.5-.86-.64-.64-.54-.43-1.36-1-.83-.57-1.76-1.04-4.34-1.47-2.57-.43-1.5,0-2.91-.45s-.64-.54-1.5-.75c-.86-.22-.21,0-1.39.43-1.18.43-1.41.43-1.74.53-.32.11-.64.34-2.57,1.74-1.93,1.39-.75.75-1.29,1.29s-.34.32-1.2.75c-.86.43-.53.11-1.29.64-.75.54-.43,1.41-.75,2.16h0ZM458.66,182.32c.53,1.2,1.68.96,4.51,1.08,2.83.12,2.33.56,4.35.78,2.03.23,3.09,1.4,2.41.07-.68-1.33-.13-.68-2.18-1.89-2.06-1.21-4.13-2.69-4.13-2.69l-3.17,1.81s-2.34-.35-1.81.84h.02ZM461.86,188.26s2.07,0,4.74.3c2.66.3,3.55,1.78,4.56,1.72,1.01-.05,1.07-.54,1.36-1.72.3-1.19-.59-1.19-.77-2.57-.17-1.38-3.38-.4-5.45-.4s-1.18.3-3.81.43c-2.63.13-.63,2.24-.63,2.24h0ZM461.26,195.66c1.77,2.07,1.48,2.66,3.55,3.26,2.07.59,1.31-.34,3.17.42,1.86.76,1.38.51,1.92-.4.54-.91.54-1.79.54-1.79,0,0-2.39-.62-3.42-.75-.65-.09-.83-.52-1.23-.85.63-.22,1.43-.76,2.28-.76,1.48,0,.89,0,3.46.41,2.58.42,1.58-2.43,1.58-2.43,0,0-1.49-.36-2.67-.65-1.19-.3-.3-.3-4.31-1.89s-1.02.7-3.09,1.59,1.19,2.07,1.7,3.34c-1.4-.09-5.25-1.57-3.47.51h0ZM458.6,197.43c1.18,2.96,2.07,4.15,2.07,4.15l2.37,1.78,1.48.89,2.25-.45.71-1.62s.89-.89-1.18-1.48-3.26-1.18-3.26-1.18c0,0,.89-.89-1.18-1.48s-4.44-3.55-3.26-.59v-.02ZM454.16,199.21l.62,4.7s.3,0,1.48,2.07c1.18,2.07,2.93,2.11,2.93,2.11l2.8-2.36-1.02-2.67c-1.18-.89-1.48-2.07-1.48-2.07,0,0-1.48-1.18-2.54-2.4-1.06-1.21-2.79.62-2.79.62h0ZM448.24,206c.03-1.05.33-2.82.33-2.82.3,2.07.32,4.62,2.96,5.03,2.64.41-.59-1.78,1.33-2.16,1.92-.39,1.04-.5,1.04-.5,0,0-1.48-5.03-1.21-6.91.27-1.87-2.64-.56-2.64-.56,0,0-1.18.36-2.07,1.55-.88,1.19.58-.3.29,1.18-.3,1.48,0,.3.3,2.37,0,0-1.18-1.48-1.48-2.66-.3-1.18.59-.59-.3-2.07-.61-1.01-.07-2.14-.16-2.19-.04-.02-.21.18-.69.74-1.52,1.75-2.41,2.93-2.41,2.93l-.26,1,.85,3.74s.05,2.68,1.78,2.96c1.72.28,2.3-.57,2.34-1.62h0ZM440.08,195.12c-.39,2.14-.16,3.95-.57,4.97l.18,3.98,2.59,1.53c1.18-3.55-.22-3.9-.22-5.38s-.69-2.29-.69-2.29c0,0-.89-4.94-1.29-2.8h0Z"/>
  <path class="st1" d="M304.79,138.31s.32-1.41,1.72-2.16c1.39-.75,1.31-.75,1.95-1.07s1.18-.43,1.61-.54.73-.21,1.82.11,2.38,1.18,2.38,1.18l.73.75s.23-.09-.41.34-.64,1.07-.64,1.07c0,0-.54.11-.86.11s-.02-.11-1.31.32c-1.29.43-1.82.32-1.82.32,0,0-.43.11-.75-.11s-1.18,0-1.18,0l-.88.75-.75.11-1.18-.21-.43-.97h0Z"/>
  <path class="st0" d="M765.33,334.79c.18-3.45.29-10.56.29-21.3,0-9.11-.42-14.85-1.26-17.25s-2.98-4.66-6.37-6.8c-3.4-2.13-7.19-3.19-11.4-3.19-5.93,0-10.93,2.29-15.06,6.87-4.11,4.56-6.16,11.32-6.16,20.28,0,7.87,2.24,14.14,6.66,18.83,4.45,4.69,10.01,7.03,16.64,7.03,3.79,0,7.27-.53,10.4-1.56s5.24-2,6.27-2.92h-.01ZM765.25,287.1l.08-2.24-.08-9.03.08-17.04c0-4.74-.53-7.74-1.56-9.03-1.03-1.29-4.03-2.61-9.03-3.92-.34-.1-.92-.26-1.69-.47v-.84c0-.53.05-1.08.16-1.71,6.98-.71,13.01-1.92,18.04-3.61l3.95-.08c.18,3.5.29,7.4.29,11.72l-.29,29.71.53,33.47-.24,17.83c0,3.66.26,5.71.79,6.19,1.03,1.03,3.29,1.56,6.77,1.61.74,0,1.71.05,2.95.16v1.4c0,.34-.03.74-.08,1.16-1.61.34-3.24.68-4.95,1l-11.17,2.16c-1.66.32-2.97.45-3.95.45v-7.4c-.87.26-2.24.76-4.08,1.55-8.03,3.4-15.41,5.08-22.15,5.08-4.06,0-8.19-1.32-12.43-3.98-4.21-2.63-7.45-6.35-9.72-11.06-2.26-4.74-3.4-9.56-3.4-14.51,0-4.42.76-8.66,2.24-12.7,1.5-4.03,3.45-7.4,5.87-10.06,1.55-1.76,3.74-3.5,6.56-5.21s5.16-2.82,7.03-3.29c4.56-1.16,7.64-1.76,9.17-1.76,6.95,0,12.67,1.03,17.14,3.08,1.37.69,2.42,1.13,3.16,1.4v-.03ZM668.83,247.51v-1.69c1.45-.47,3.05-.95,4.79-1.47,2.58-.82,6.37-2.08,11.43-3.79h3.61c.05,2.48.08,3.9.08,4.27,0,42.22-.13,67.39-.37,75.53-.16,4.77-.24,7.32-.24,7.64,0,5.77.24,8.98.68,9.64.63.92,2.5,1.58,5.66,1.92,3.19.37,5.03.74,5.61,1.08.42.21.61.58.61,1.08,0,.58-.11.97-.34,1.21-.24.21-.66.34-1.26.34-.37,0-3.06-.08-8.11-.24l-10.11-.32-12.96.55c-.82.05-1.42-.11-1.84-.47-.32-.24-.47-.61-.47-1.08,0-.5.18-.87.5-1.11.34-.24,2.19-.63,5.56-1.21,3.37-.55,5.29-1.03,5.79-1.42.5-.37.82-1.24.97-2.58.19-1.84.29-7.08.29-15.67l-.08-17.75.24-18.35-.08-18.36.24-9.03c0-1.79-.29-3.11-.84-3.9-.58-.79-1.79-1.58-3.63-2.34-2.77-1.13-4.69-1.95-5.71-2.47h-.02ZM609.18,299.61h3.61c2.63,0,10.46-.42,23.46-1.24,2.06-.11,3.32-.32,3.77-.63.95-.97,1.4-1.84,1.4-2.61,0-1.61-.5-3.42-1.53-5.45s-2.63-3.61-4.77-4.71c-2.13-1.11-4.61-1.66-7.43-1.66-5.98,0-10.77,2.24-14.35,6.72-2.79,3.4-4.16,6.58-4.16,9.59h0ZM652.22,302.37l-30.92.24h-5.87c-2.37,0-4.79.1-7.27.32-.45,1.53-.69,2.58-.69,3.16l.08.76v.76l-.08,3.79c0,3.13,1,6.98,2.98,11.53,1.97,4.56,4.82,8.03,8.48,10.4,3.69,2.4,8.27,3.69,13.77,3.82,2.92-.13,5.27-.5,7.03-1.08,1.74-.55,4.21-1.87,7.4-3.92l5.56-4.56.45,3.08c0,.37-.03.77-.05,1.16-2.32,2.95-5.27,5.5-8.8,7.72-3.56,2.21-7.16,3.84-10.83,4.87-1.74.45-4.61.69-8.64.69-3.63,0-7.24-.74-10.8-2.24-5.24-2.26-9.38-5.9-12.38-10.9-3-5.03-4.5-11.11-4.5-18.25,0-2.26.42-5.19,1.26-8.72.84-3.55,2.37-7.35,4.58-11.35,1.5-2.71,3.32-4.95,5.48-6.71,3.08-2.48,5.79-4.19,8.11-5.16,3.34-1.39,7.22-2.08,11.64-2.08,4.79,0,8.69.87,11.75,2.61,4.11,2.32,7.16,5.32,9.22,8.95,2.03,3.66,3.03,7.01,3.03,10.04v1.08h0ZM551.51,288.26l.08-2.24c3.34-.97,5.13-1.55,5.4-1.68,1.84-.84,3.79-2.11,5.82-3.79,2.03-1.69,3.74-3.61,5.14-5.71.6-.1,1.11-.16,1.47-.16l.92.08c.21,2.47.29,4.26.29,5.4,0,.26-.03,1.42-.13,3.48v4.08l.08,22.23-.24,23.54c-.05,1.9.26,3.21.92,3.98.66.74,2.66,1.58,5.95,2.5,2.05.55,3.58,1.05,4.61,1.47.16.34.24.66.24.92,0,.29-.13.68-.4,1.16-2-.05-4.56-.18-7.71-.4-4.27-.37-7.09-.55-8.48-.55-.66,0-4.77.13-12.35.4-1.53.05-3.03.18-4.45.4-.26,0-.69-.08-1.24-.24-.26-.37-.39-.66-.39-.92,0-.74.5-1.29,1.47-1.71.19-.11,2.82-.69,7.87-1.76,1.63-.32,2.71-.82,3.24-1.55.87-1.08,1.29-2.79,1.29-5.16.1-3.95.16-14.8.16-32.55,0-3.55-.16-5.77-.45-6.64-.26-.63-.95-1.32-2.05-2.13-1.11-.79-3.45-1.61-7.06-2.42v-.03ZM557.99,248.28c0-1.69.66-3.16,1.98-4.4,1.31-1.21,2.9-1.84,4.74-1.84s3.58.69,5.01,2.08c1.45,1.4,2.16,2.9,2.16,4.48s-.71,3.11-2.16,4.53c-1.42,1.4-3.11,2.11-5.01,2.11s-3.5-.63-4.79-1.92-1.92-2.95-1.92-5.03h-.01ZM516.51,283.01c12.8.29,19.62.45,20.46.45.08,1.13.13,2,.13,2.55,0,.66-.08,1.66-.21,3-1.29.21-2.61.32-3.95.32h-2.92c-6.37,0-10.8.24-13.27.69-.11,1.19-.16,2.08-.16,2.71,0,.27.03.63.08,1.16.26,8.06.4,12.96.4,14.64l-.16,19.83c0,2.95.47,5.4,1.45,7.35.58,1.13,1.63,2.03,3.19,2.69.97.47,3.35.92,7.09,1.4,2.84.42,4.74.69,5.72.84,0,1.08-.08,1.92-.24,2.48l-1.08.08c-2.48-.16-5.69-.29-9.64-.4l-5.72-.24-19.44.63h-2.55l-.08-2.4c.76-.16,1.34-.29,1.71-.39,4.43-.82,7.27-1.74,8.56-2.77.5-.42.87-1.16,1.08-2.24.1-.61.16-3.5.16-8.64,0-14.67-.13-26.36-.4-35.1-1.34-.42-3.4-.68-6.16-.76-1.03,0-2.66-.11-4.87-.32l-.16-.84c0-.63.26-1.13.79-1.55.18-.21,2.34-1.29,6.48-3.24,1.58-.71,2.71-1.63,3.4-2.71.34-.55.55-1.74.6-3.53.05-.84.21-2.24.47-4.24.6-5.32,1.11-8.58,1.45-9.82.92-3.42,2.48-6.87,4.66-10.3,2.18-3.4,4.85-6.4,7.93-8.98,2.26-1.84,4.82-3.24,7.66-4.16,2.87-.92,6.11-1.4,9.77-1.4,4.87,0,8.45.79,10.72,2.4,1.56,1.08,2.32,2.48,2.32,4.16,0,1.45-.55,2.68-1.63,3.71-1.08,1.03-2.4,1.53-4,1.53-1.95,0-4.06-.47-6.32-1.45-4.27-1.71-6.69-2.63-7.24-2.79-1-.26-2-.37-3.03-.37-2.82,0-5.4.89-7.74,2.69-2.34,1.82-3.82,4-4.45,6.64-.6,2.63-.92,8.51-.92,17.67,0,3.29.03,6.29.08,9.03h-.02ZM433.79,323.52c1.9,4.87,3.35,8.06,4.32,9.48,1.95,2.95,4.29,5.21,7.01,6.82,2.74,1.63,5.69,2.45,8.87,2.45,2.95,0,5.85-1.26,8.72-3.79,2.08-1.9,3.11-4.11,3.11-6.64,0-3.34-1.21-6.42-3.63-9.24-2.42-2.79-7-5.45-13.77-8.01-6.77-2.53-11.3-5.24-13.61-8.14-2.32-2.87-3.48-6.16-3.48-9.88,0-3.48.95-6.58,2.85-9.24,1.92-2.69,4.53-4.69,7.87-6.06,3.35-1.37,6.43-2.06,9.27-2.06,3.66,0,6.93.29,9.82.84,2.92.58,5.43,1.45,7.53,2.63.42,2.63.74,6.48,1,11.56l.16,2.48c-.66.05-1.24.08-1.69.08h-1.08c-1.56-4.27-3.9-7.64-7.09-10.14-3.16-2.5-6.27-3.74-9.37-3.74s-5.56.92-7.48,2.82c-1.9,1.87-2.84,4.32-2.84,7.37,0,2.29.76,4.37,2.32,6.16,1.53,1.79,5.16,3.84,10.82,6.16,5.69,2.32,9.82,4.48,12.43,6.45s4.5,4.37,5.74,7.21c1.24,2.82,1.87,5.53,1.87,8.09,0,3.56-1.19,6.87-3.53,9.96-2.34,3.11-5.27,5.27-8.8,6.53-3.5,1.27-6.66,1.9-9.43,1.9-6.56,0-12.56-1.21-18.07-3.63-.53-.42-.79-1.19-.84-2.32,0-.45-.05-1.21-.16-2.24-.82-6.93-1.24-11.06-1.24-12.35,0-.61.13-1.03.39-1.21.24-.21.92-.32,2-.32v.02ZM344.78,343.11l-.16-2.24c.42-.32.82-.5,1.16-.58.37-.08,1.66-.18,3.9-.34s3.63-.66,4.21-1.5c.55-.84.84-4.37.84-10.54l.16-30.47-.16-5.4c0-.47.05-2.18.16-5.19.11-1.37.16-3.05.16-5l-.32-13.43.08-11.72c0-2.84-.4-4.66-1.19-5.45-.82-.79-3.63-1.53-8.45-2.19v-.92c0-.32.03-.76.08-1.32,2.92-.63,5.53-1.39,7.8-2.32,1.19-.53,4.19-2.11,9.01-4.79h2.4c-.05,1.18-.08,1.9-.08,2.16v6.72l-.08,3.32.24,6.11-.08,9.17.08,15.27-.24,18.99v5.87c0,.71.03,1.71.08,3l.87.08c1.74,0,3.5-.66,5.32-1.92,8.06-5.77,13.14-9.69,15.2-11.77,2.05-2.08,3.08-3.58,3.08-4.53,0-.55-.34-1.27-1-2.16-1.55-.82-3.27-1.37-5.16-1.69-.58-.11-1.19-.24-1.87-.39-.92-.24-1.69-.42-2.32-.53l-.13-.79c0-.34.13-.87.37-1.53,8.14-.32,15.2-.47,21.23-.47,3.4,0,7.03.08,10.88.24v1c0,.37-.13.82-.4,1.4-.76.16-1.98.39-3.61.69-3.19.52-5.61,1.24-7.27,2.16-3.95,2.11-8.03,5.08-12.27,8.88-2.5,2.26-4.69,4.16-6.56,5.72l-2.77,2.4c.21.37.53.79,1,1.32.21.18.63.66,1.24,1.37.6.74,1.71,1.95,3.32,3.63,5.56,5.87,9.67,10.4,12.35,13.59.87,1.03,1.84,2.16,2.92,3.4,4,4.48,6.35,6.95,7.03,7.48,1.42.92,3.56,1.63,6.4,2.16,1.34.26,2.48.47,3.48.68.18.63.29,1.11.29,1.47l-.08.76c-3.63-.32-6.27-.45-7.85-.45h-1.4l-21.46.61c-.82.1-1.37.16-1.69.16-.52,0-1.05-.11-1.63-.32-.13-.4-.21-.76-.21-1.08v-.53c.29-.47.58-.76.84-.87,5.08-.39,8.03-.74,8.87-1,.45-.1.9-.37,1.32-.84,0-.87-.76-2.29-2.24-4.24-1.5-1.95-5.24-6.24-11.19-12.88-3.82-4.21-6.27-6.69-7.37-7.37-1.11-.68-2.63-1.05-4.58-1.05h-2.95c-.18,1.87-.29,6.11-.29,12.75,0,6.16.5,10.14,1.53,11.88.58.97,1.9,1.58,4.03,1.84,2.11.26,3.45.66,4.08,1.16.39.32.66,1.03.76,2.16-3.08-.05-5.69-.08-7.79-.08-3.4,0-7.09.08-11.11.24-2.4.11-4.32.16-5.69.16-1.03,0-2.74-.03-5.11-.08v-.03ZM291.82,342.19c3.9,0,7.66-1.05,11.3-3.16,3.63-2.11,6.53-5.5,8.69-10.16,2.16-4.64,3.24-10.03,3.24-16.14,0-4.03-.84-8.66-2.53-13.99-1.66-5.29-4.24-9.27-7.71-11.9-3.45-2.66-7.53-3.98-12.22-3.98-3.4,0-6.85.79-10.38,2.4-3.53,1.58-6.5,4.64-8.95,9.17s-3.66,10.96-3.66,19.3c0,9.35,2.13,16.44,6.37,21.25,4.24,4.82,9.53,7.22,15.85,7.22h0ZM257.72,312.09c0-3.5.74-7.24,2.18-11.22,1.47-3.98,3.71-7.56,6.69-10.72s6.14-5.53,9.48-7.06c4.69-2.16,10.4-3.24,17.14-3.24,9.61,0,17.64,3.29,24.1,9.88,6.45,6.58,9.69,14.48,9.69,23.75,0,8.22-3.4,15.56-10.16,22.02-6.74,6.48-15.3,9.69-25.65,9.69-6.37,0-12.38-1.66-18.04-5-4.21-2.53-7.85-6.27-10.88-11.19-3.06-4.95-4.56-10.59-4.56-16.91h0ZM203.28,342.19c3.9,0,7.66-1.05,11.3-3.16,3.63-2.11,6.53-5.5,8.69-10.16,2.16-4.64,3.24-10.03,3.24-16.14,0-4.03-.84-8.66-2.53-13.99-1.66-5.29-4.24-9.27-7.72-11.9-3.45-2.66-7.53-3.98-12.22-3.98-3.4,0-6.85.79-10.38,2.4-3.53,1.58-6.5,4.64-8.95,9.17s-3.66,10.96-3.66,19.3c0,9.35,2.13,16.44,6.37,21.25,4.24,4.82,9.53,7.22,15.85,7.22h0ZM169.18,312.09c0-3.5.74-7.24,2.19-11.22,1.47-3.98,3.71-7.56,6.69-10.72,2.97-3.16,6.14-5.53,9.48-7.06,4.69-2.16,10.4-3.24,17.14-3.24,9.61,0,17.64,3.29,24.1,9.88,6.45,6.58,9.69,14.48,9.69,23.75,0,8.22-3.4,15.56-10.17,22.02-6.74,6.48-15.3,9.69-25.65,9.69-6.37,0-12.38-1.66-18.04-5-4.21-2.53-7.85-6.27-10.88-11.19-3.05-4.95-4.56-10.59-4.56-16.91h0ZM106.1,343.35l-.32-1c0-.37.24-.9.71-1.63l4.56-.92,6.4-1.16c.5-.26.87-.6,1.08-1.08.32-.66.45-2.66.45-5.95,0-17.49-.1-27.57-.29-30.26-.21-2.71-.69-4.42-1.4-5.13-.71-.74-2.58-1.29-5.56-1.71-1.74-.24-3.13-.58-4.16-1l.32-2.32c5.4-2.21,9.01-4.11,10.88-5.69,2.55-2.32,4.74-5.37,6.56-9.11l2.61.08c.32,2.55.47,8.27.47,17.12l-.08,1.32c0,.32.05.79.16,1.47,1.95-3.55,4.4-6.82,7.32-9.8l1.76-1.79c.74-.82,1.42-1.47,2.11-1.92,3.58-2.16,6.27-3.24,8.01-3.24,2.26,0,4.11.76,5.56,2.26,1.45,1.53,2.16,3.4,2.16,5.61,0,1.74-.5,3.11-1.53,4.08-1.4,1.29-3,1.92-4.79,1.92-.82,0-2.45-.42-4.87-1.32-2.4-.87-4-1.29-4.77-1.29-1.45,0-2.45.21-3.03.68-1.42,1.13-3.19,3.45-5.24,6.95-1.58,2.61-2.4,5.03-2.4,7.24l.4,12.72.16,15.27c.16,1.77.37,2.9.61,3.4.21.37.74.82,1.55,1.31,5.56.48,8.85.79,9.88,1,.71.05,1.26.11,1.63.16,2.18.05,3.74.37,4.61.92.47.26.71.66.71,1.16,0,.32-.21.74-.63,1.24l-8.56-.08-3.24-.08-4.72.08h-7.87l-4.24.24-12.96.24h-.01ZM48.77,339.03c5.08-.37,9.35-1.45,12.8-3.24,1.61-.84,3.47-2.32,5.66-4.45,2.18-2.13,3.9-4.69,5.11-7.66,1.21-3,1.82-5.87,1.82-8.64,0-2.11-.45-4.71-1.29-7.79-.84-3.11-2.29-5.82-4.32-8.14-2.03-2.34-5.06-4.27-9.06-5.79-4-1.53-8.43-2.29-13.27-2.29-9.35,0-14.62.18-15.75.55-.05,1.19-.08,2.06-.08,2.63l.08,2.85-.08,5.79v6.56c.16,12.09.45,19.22.87,21.44.39,2.21,1.79,4.11,4.19,5.71,2.4,1.61,6.85,2.42,13.33,2.48h0ZM30.63,286.57c2.58.5,5.27.76,8.11.76,11.11,0,18.64-2.45,22.6-7.32,3.98-4.9,5.95-9.77,5.95-14.59,0-2.16-.34-4.37-1.05-6.61-.69-2.24-1.92-4.24-3.69-6.06-1.79-1.79-3.98-3.13-6.61-4-4.48-1.5-9.06-2.24-13.72-2.24-4.37,0-8.45.5-12.19,1.47-.05,1.08-.08,1.87-.08,2.4s.05,1.98.16,4.37c.05,1.55.08,3.11.08,4.64l-.24,9.35.08,5.56.53,10.88.08,1.39h0ZM0,247.51v-2.4c.87-.21,1.58-.32,2.08-.37l7.27-.4c6-.53,12.75-.92,20.2-1.24,2.98-.11,7.69-.16,14.12-.16,8.74,0,15.17.66,19.22,1.92,5.9,1.92,10.32,4.79,13.22,8.61,2.92,3.84,4.37,8.08,4.37,12.77,0,7.61-5.43,14.01-16.28,19.22l-.39.61c5.56,1.5,10.11,3.58,13.67,6.24,3.53,2.69,6.27,5.95,8.16,9.8,1.4,2.84,2.08,6.53,2.08,11.11,0,7.66-3.48,14.51-10.46,20.49-6.95,6-16.56,8.98-28.81,8.98h-11.51l-11.64.4c-10.3.1-16.3.16-18.04.16s-3.58-.08-5.35-.24v-.84c0-.63.13-1.05.39-1.32.32-.32.9-.55,1.77-.77,6.45-1.34,10.09-2.26,10.93-2.74.84-.5,1.42-1.29,1.74-2.37.6-2.06.92-7.35.92-15.88,0-.76-.03-1.76-.08-2.92-.11-3.45-.16-5.45-.16-5.95v-8.03c0-13.56-.16-25.44-.45-35.55l-.08-15.51-.08-1.92c-4.37-.63-8.24-1.03-11.59-1.16-2.16-.05-3.9-.24-5.24-.55h.02Z"/>
  <path class="st0" d="M765.33,334.79c.18-3.45.29-10.56.29-21.3,0-9.11-.42-14.85-1.26-17.25s-2.98-4.66-6.37-6.8c-3.4-2.13-7.19-3.19-11.4-3.19-5.93,0-10.93,2.29-15.06,6.87-4.11,4.56-6.16,11.32-6.16,20.28,0,7.87,2.24,14.14,6.66,18.83,4.45,4.69,10.01,7.03,16.64,7.03,3.79,0,7.27-.53,10.4-1.56s5.24-2,6.27-2.92h-.01ZM765.25,287.1l.08-2.24-.08-9.03.08-17.04c0-4.74-.53-7.74-1.56-9.03-1.03-1.29-4.03-2.61-9.03-3.92-.34-.1-.92-.26-1.69-.47v-.84c0-.53.05-1.08.16-1.71,6.98-.71,13.01-1.92,18.04-3.61l3.95-.08c.18,3.5.29,7.4.29,11.72l-.29,29.71.53,33.47-.24,17.83c0,3.66.26,5.71.79,6.19,1.03,1.03,3.29,1.56,6.77,1.61.74,0,1.71.05,2.95.16v1.4c0,.34-.03.74-.08,1.16-1.61.34-3.24.68-4.95,1l-11.17,2.16c-1.66.32-2.97.45-3.95.45v-7.4c-.87.26-2.24.76-4.08,1.55-8.03,3.4-15.41,5.08-22.15,5.08-4.06,0-8.19-1.32-12.43-3.98-4.21-2.63-7.45-6.35-9.72-11.06-2.26-4.74-3.4-9.56-3.4-14.51,0-4.42.76-8.66,2.24-12.7,1.5-4.03,3.45-7.4,5.87-10.06,1.55-1.76,3.74-3.5,6.56-5.21s5.16-2.82,7.03-3.29c4.56-1.16,7.64-1.76,9.17-1.76,6.95,0,12.67,1.03,17.14,3.08,1.37.69,2.42,1.13,3.16,1.4v-.03ZM668.83,247.51v-1.69c1.45-.47,3.05-.95,4.79-1.47,2.58-.82,6.37-2.08,11.43-3.79h3.61c.05,2.48.08,3.9.08,4.27,0,42.22-.13,67.39-.37,75.53-.16,4.77-.24,7.32-.24,7.64,0,5.77.24,8.98.68,9.64.63.92,2.5,1.58,5.66,1.92,3.19.37,5.03.74,5.61,1.08.42.21.61.58.61,1.08,0,.58-.11.97-.34,1.21-.24.21-.66.34-1.26.34-.37,0-3.06-.08-8.11-.24l-10.11-.32-12.96.55c-.82.05-1.42-.11-1.84-.47-.32-.24-.47-.61-.47-1.08,0-.5.18-.87.5-1.11.34-.24,2.19-.63,5.56-1.21,3.37-.55,5.29-1.03,5.79-1.42.5-.37.82-1.24.97-2.58.19-1.84.29-7.08.29-15.67l-.08-17.75.24-18.35-.08-18.36.24-9.03c0-1.79-.29-3.11-.84-3.9-.58-.79-1.79-1.58-3.63-2.34-2.77-1.13-4.69-1.95-5.71-2.47h-.02ZM609.18,299.61h3.61c2.63,0,10.46-.42,23.46-1.24,2.06-.11,3.32-.32,3.77-.63.95-.97,1.4-1.84,1.4-2.61,0-1.61-.5-3.42-1.53-5.45s-2.63-3.61-4.77-4.71c-2.13-1.11-4.61-1.66-7.43-1.66-5.98,0-10.77,2.24-14.35,6.72-2.79,3.4-4.16,6.58-4.16,9.59h0ZM652.22,302.37l-30.92.24h-5.87c-2.37,0-4.79.1-7.27.32-.45,1.53-.69,2.58-.69,3.16l.08.76v.76l-.08,3.79c0,3.13,1,6.98,2.98,11.53,1.97,4.56,4.82,8.03,8.48,10.4,3.69,2.4,8.27,3.69,13.77,3.82,2.92-.13,5.27-.5,7.03-1.08,1.74-.55,4.21-1.87,7.4-3.92l5.56-4.56.45,3.08c0,.37-.03.77-.05,1.16-2.32,2.95-5.27,5.5-8.8,7.72-3.56,2.21-7.16,3.84-10.83,4.87-1.74.45-4.61.69-8.64.69-3.63,0-7.24-.74-10.8-2.24-5.24-2.26-9.38-5.9-12.38-10.9-3-5.03-4.5-11.11-4.5-18.25,0-2.26.42-5.19,1.26-8.72.84-3.55,2.37-7.35,4.58-11.35,1.5-2.71,3.32-4.95,5.48-6.71,3.08-2.48,5.79-4.19,8.11-5.16,3.34-1.39,7.22-2.08,11.64-2.08,4.79,0,8.69.87,11.75,2.61,4.11,2.32,7.16,5.32,9.22,8.95,2.03,3.66,3.03,7.01,3.03,10.04v1.08h0ZM551.51,288.26l.08-2.24c3.34-.97,5.13-1.55,5.4-1.68,1.84-.84,3.79-2.11,5.82-3.79,2.03-1.69,3.74-3.61,5.14-5.71.6-.1,1.11-.16,1.47-.16l.92.08c.21,2.47.29,4.26.29,5.4,0,.26-.03,1.42-.13,3.48v4.08l.08,22.23-.24,23.54c-.05,1.9.26,3.21.92,3.98.66.74,2.66,1.58,5.95,2.5,2.05.55,3.58,1.05,4.61,1.47.16.34.24.66.24.92,0,.29-.13.68-.4,1.16-2-.05-4.56-.18-7.71-.4-4.27-.37-7.09-.55-8.48-.55-.66,0-4.77.13-12.35.4-1.53.05-3.03.18-4.45.4-.26,0-.69-.08-1.24-.24-.26-.37-.39-.66-.39-.92,0-.74.5-1.29,1.47-1.71.19-.11,2.82-.69,7.87-1.76,1.63-.32,2.71-.82,3.24-1.55.87-1.08,1.29-2.79,1.29-5.16.1-3.95.16-14.8.16-32.55,0-3.55-.16-5.77-.45-6.64-.26-.63-.95-1.32-2.05-2.13-1.11-.79-3.45-1.61-7.06-2.42v-.03ZM557.99,248.28c0-1.69.66-3.16,1.98-4.4,1.31-1.21,2.9-1.84,4.74-1.84s3.58.69,5.01,2.08c1.45,1.4,2.16,2.9,2.16,4.48s-.71,3.11-2.16,4.53c-1.42,1.4-3.11,2.11-5.01,2.11s-3.5-.63-4.79-1.92-1.92-2.95-1.92-5.03h-.01ZM516.51,283.01c12.8.29,19.62.45,20.46.45.08,1.13.13,2,.13,2.55,0,.66-.08,1.66-.21,3-1.29.21-2.61.32-3.95.32h-2.92c-6.37,0-10.8.24-13.27.69-.11,1.19-.16,2.08-.16,2.71,0,.27.03.63.08,1.16.26,8.06.4,12.96.4,14.64l-.16,19.83c0,2.95.47,5.4,1.45,7.35.58,1.13,1.63,2.03,3.19,2.69.97.47,3.35.92,7.09,1.4,2.84.42,4.74.69,5.72.84,0,1.08-.08,1.92-.24,2.48l-1.08.08c-2.48-.16-5.69-.29-9.64-.4l-5.72-.24-19.44.63h-2.55l-.08-2.4c.76-.16,1.34-.29,1.71-.39,4.43-.82,7.27-1.74,8.56-2.77.5-.42.87-1.16,1.08-2.24.1-.61.16-3.5.16-8.64,0-14.67-.13-26.36-.4-35.1-1.34-.42-3.4-.68-6.16-.76-1.03,0-2.66-.11-4.87-.32l-.16-.84c0-.63.26-1.13.79-1.55.18-.21,2.34-1.29,6.48-3.24,1.58-.71,2.71-1.63,3.4-2.71.34-.55.55-1.74.6-3.53.05-.84.21-2.24.47-4.24.6-5.32,1.11-8.58,1.45-9.82.92-3.42,2.48-6.87,4.66-10.3,2.18-3.4,4.85-6.4,7.93-8.98,2.26-1.84,4.82-3.24,7.66-4.16,2.87-.92,6.11-1.4,9.77-1.4,4.87,0,8.45.79,10.72,2.4,1.56,1.08,2.32,2.48,2.32,4.16,0,1.45-.55,2.68-1.63,3.71-1.08,1.03-2.4,1.53-4,1.53-1.95,0-4.06-.47-6.32-1.45-4.27-1.71-6.69-2.63-7.24-2.79-1-.26-2-.37-3.03-.37-2.82,0-5.4.89-7.74,2.69-2.34,1.82-3.82,4-4.45,6.64-.6,2.63-.92,8.51-.92,17.67,0,3.29.03,6.29.08,9.03h-.02ZM433.79,323.52c1.9,4.87,3.35,8.06,4.32,9.48,1.95,2.95,4.29,5.21,7.01,6.82,2.74,1.63,5.69,2.45,8.87,2.45,2.95,0,5.85-1.26,8.72-3.79,2.08-1.9,3.11-4.11,3.11-6.64,0-3.34-1.21-6.42-3.63-9.24-2.42-2.79-7-5.45-13.77-8.01-6.77-2.53-11.3-5.24-13.61-8.14-2.32-2.87-3.48-6.16-3.48-9.88,0-3.48.95-6.58,2.85-9.24,1.92-2.69,4.53-4.69,7.87-6.06,3.35-1.37,6.43-2.06,9.27-2.06,3.66,0,6.93.29,9.82.84,2.92.58,5.43,1.45,7.53,2.63.42,2.63.74,6.48,1,11.56l.16,2.48c-.66.05-1.24.08-1.69.08h-1.08c-1.56-4.27-3.9-7.64-7.09-10.14-3.16-2.5-6.27-3.74-9.37-3.74s-5.56.92-7.48,2.82c-1.9,1.87-2.84,4.32-2.84,7.37,0,2.29.76,4.37,2.32,6.16,1.53,1.79,5.16,3.84,10.82,6.16,5.69,2.32,9.82,4.48,12.43,6.45s4.5,4.37,5.74,7.21c1.24,2.82,1.87,5.53,1.87,8.09,0,3.56-1.19,6.87-3.53,9.96-2.34,3.11-5.27,5.27-8.8,6.53-3.5,1.27-6.66,1.9-9.43,1.9-6.56,0-12.56-1.21-18.07-3.63-.53-.42-.79-1.19-.84-2.32,0-.45-.05-1.21-.16-2.24-.82-6.93-1.24-11.06-1.24-12.35,0-.61.13-1.03.39-1.21.24-.21.92-.32,2-.32v.02ZM344.78,343.11l-.16-2.24c.42-.32.82-.5,1.16-.58.37-.08,1.66-.18,3.9-.34s3.63-.66,4.21-1.5c.55-.84.84-4.37.84-10.54l.16-30.47-.16-5.4c0-.47.05-2.18.16-5.19.11-1.37.16-3.05.16-5l-.32-13.43.08-11.72c0-2.84-.4-4.66-1.19-5.45-.82-.79-3.63-1.53-8.45-2.19v-.92c0-.32.03-.76.08-1.32,2.92-.63,5.53-1.39,7.8-2.32,1.19-.53,4.19-2.11,9.01-4.79h2.4c-.05,1.18-.08,1.9-.08,2.16v6.72l-.08,3.32.24,6.11-.08,9.17.08,15.27-.24,18.99v5.87c0,.71.03,1.71.08,3l.87.08c1.74,0,3.5-.66,5.32-1.92,8.06-5.77,13.14-9.69,15.2-11.77,2.05-2.08,3.08-3.58,3.08-4.53,0-.55-.34-1.27-1-2.16-1.55-.82-3.27-1.37-5.16-1.69-.58-.11-1.19-.24-1.87-.39-.92-.24-1.69-.42-2.32-.53l-.13-.79c0-.34.13-.87.37-1.53,8.14-.32,15.2-.47,21.23-.47,3.4,0,7.03.08,10.88.24v1c0,.37-.13.82-.4,1.4-.76.16-1.98.39-3.61.69-3.19.52-5.61,1.24-7.27,2.16-3.95,2.11-8.03,5.08-12.27,8.88-2.5,2.26-4.69,4.16-6.56,5.72l-2.77,2.4c.21.37.53.79,1,1.32.21.18.63.66,1.24,1.37.6.74,1.71,1.95,3.32,3.63,5.56,5.87,9.67,10.4,12.35,13.59.87,1.03,1.84,2.16,2.92,3.4,4,4.48,6.35,6.95,7.03,7.48,1.42.92,3.56,1.63,6.4,2.16,1.34.26,2.48.47,3.48.68.18.63.29,1.11.29,1.47l-.08.76c-3.63-.32-6.27-.45-7.85-.45h-1.4l-21.46.61c-.82.1-1.37.16-1.69.16-.52,0-1.05-.11-1.63-.32-.13-.4-.21-.76-.21-1.08v-.53c.29-.47.58-.76.84-.87,5.08-.39,8.03-.74,8.87-1,.45-.1.9-.37,1.32-.84,0-.87-.76-2.29-2.24-4.24-1.5-1.95-5.24-6.24-11.19-12.88-3.82-4.21-6.27-6.69-7.37-7.37-1.11-.68-2.63-1.05-4.58-1.05h-2.95c-.18,1.87-.29,6.11-.29,12.75,0,6.16.5,10.14,1.53,11.88.58.97,1.9,1.58,4.03,1.84,2.11.26,3.45.66,4.08,1.16.39.32.66,1.03.76,2.16-3.08-.05-5.69-.08-7.79-.08-3.4,0-7.09.08-11.11.24-2.4.11-4.32.16-5.69.16-1.03,0-2.74-.03-5.11-.08v-.03ZM291.82,342.19c3.9,0,7.66-1.05,11.3-3.16,3.63-2.11,6.53-5.5,8.69-10.16,2.16-4.64,3.24-10.03,3.24-16.14,0-4.03-.84-8.66-2.53-13.99-1.66-5.29-4.24-9.27-7.71-11.9-3.45-2.66-7.53-3.98-12.22-3.98-3.4,0-6.85.79-10.38,2.4-3.53,1.58-6.5,4.64-8.95,9.17s-3.66,10.96-3.66,19.3c0,9.35,2.13,16.44,6.37,21.25,4.24,4.82,9.53,7.22,15.85,7.22h0ZM257.72,312.09c0-3.5.74-7.24,2.18-11.22,1.47-3.98,3.71-7.56,6.69-10.72s6.14-5.53,9.48-7.06c4.69-2.16,10.4-3.24,17.14-3.24,9.61,0,17.64,3.29,24.1,9.88,6.45,6.58,9.69,14.48,9.69,23.75,0,8.22-3.4,15.56-10.16,22.02-6.74,6.48-15.3,9.69-25.65,9.69-6.37,0-12.38-1.66-18.04-5-4.21-2.53-7.85-6.27-10.88-11.19-3.06-4.95-4.56-10.59-4.56-16.91h0ZM203.28,342.19c3.9,0,7.66-1.05,11.3-3.16,3.63-2.11,6.53-5.5,8.69-10.16,2.16-4.64,3.24-10.03,3.24-16.14,0-4.03-.84-8.66-2.53-13.99-1.66-5.29-4.24-9.27-7.72-11.9-3.45-2.66-7.53-3.98-12.22-3.98-3.4,0-6.85.79-10.38,2.4-3.53,1.58-6.5,4.64-8.95,9.17s-3.66,10.96-3.66,19.3c0,9.35,2.13,16.44,6.37,21.25,4.24,4.82,9.53,7.22,15.85,7.22h0ZM169.18,312.09c0-3.5.74-7.24,2.19-11.22,1.47-3.98,3.71-7.56,6.69-10.72,2.97-3.16,6.14-5.53,9.48-7.06,4.69-2.16,10.4-3.24,17.14-3.24,9.61,0,17.64,3.29,24.1,9.88,6.45,6.58,9.69,14.48,9.69,23.75,0,8.22-3.4,15.56-10.17,22.02-6.74,6.48-15.3,9.69-25.65,9.69-6.37,0-12.38-1.66-18.04-5-4.21-2.53-7.85-6.27-10.88-11.19-3.05-4.95-4.56-10.59-4.56-16.91h0ZM106.1,343.35l-.32-1c0-.37.24-.9.71-1.63l4.56-.92,6.4-1.16c.5-.26.87-.6,1.08-1.08.32-.66.45-2.66.45-5.95,0-17.49-.1-27.57-.29-30.26-.21-2.71-.69-4.42-1.4-5.13-.71-.74-2.58-1.29-5.56-1.71-1.74-.24-3.13-.58-4.16-1l.32-2.32c5.4-2.21,9.01-4.11,10.88-5.69,2.55-2.32,4.74-5.37,6.56-9.11l2.61.08c.32,2.55.47,8.27.47,17.12l-.08,1.32c0,.32.05.79.16,1.47,1.95-3.55,4.4-6.82,7.32-9.8l1.76-1.79c.74-.82,1.42-1.47,2.11-1.92,3.58-2.16,6.27-3.24,8.01-3.24,2.26,0,4.11.76,5.56,2.26,1.45,1.53,2.16,3.4,2.16,5.61,0,1.74-.5,3.11-1.53,4.08-1.4,1.29-3,1.92-4.79,1.92-.82,0-2.45-.42-4.87-1.32-2.4-.87-4-1.29-4.77-1.29-1.45,0-2.45.21-3.03.68-1.42,1.13-3.19,3.45-5.24,6.95-1.58,2.61-2.4,5.03-2.4,7.24l.4,12.72.16,15.27c.16,1.77.37,2.9.61,3.4.21.37.74.82,1.55,1.31,5.56.48,8.85.79,9.88,1,.71.05,1.26.11,1.63.16,2.18.05,3.74.37,4.61.92.47.26.71.66.71,1.16,0,.32-.21.74-.63,1.24l-8.56-.08-3.24-.08-4.72.08h-7.87l-4.24.24-12.96.24h-.01ZM48.77,339.03c5.08-.37,9.35-1.45,12.8-3.24,1.61-.84,3.47-2.32,5.66-4.45,2.18-2.13,3.9-4.69,5.11-7.66,1.21-3,1.82-5.87,1.82-8.64,0-2.11-.45-4.71-1.29-7.79-.84-3.11-2.29-5.82-4.32-8.14-2.03-2.34-5.06-4.27-9.06-5.79-4-1.53-8.43-2.29-13.27-2.29-9.35,0-14.62.18-15.75.55-.05,1.19-.08,2.06-.08,2.63l.08,2.85-.08,5.79v6.56c.16,12.09.45,19.22.87,21.44.39,2.21,1.79,4.11,4.19,5.71,2.4,1.61,6.85,2.42,13.33,2.48h0ZM30.63,286.57c2.58.5,5.27.76,8.11.76,11.11,0,18.64-2.45,22.6-7.32,3.98-4.9,5.95-9.77,5.95-14.59,0-2.16-.34-4.37-1.05-6.61-.69-2.24-1.92-4.24-3.69-6.06-1.79-1.79-3.98-3.13-6.61-4-4.48-1.5-9.06-2.24-13.72-2.24-4.37,0-8.45.5-12.19,1.47-.05,1.08-.08,1.87-.08,2.4s.05,1.98.16,4.37c.05,1.55.08,3.11.08,4.64l-.24,9.35.08,5.56.53,10.88.08,1.39h0ZM0,247.51v-2.4c.87-.21,1.58-.32,2.08-.37l7.27-.4c6-.53,12.75-.92,20.2-1.24,2.98-.11,7.69-.16,14.12-.16,8.74,0,15.17.66,19.22,1.92,5.9,1.92,10.32,4.79,13.22,8.61,2.92,3.84,4.37,8.08,4.37,12.77,0,7.61-5.43,14.01-16.28,19.22l-.39.61c5.56,1.5,10.11,3.58,13.67,6.24,3.53,2.69,6.27,5.95,8.16,9.8,1.4,2.84,2.08,6.53,2.08,11.11,0,7.66-3.48,14.51-10.46,20.49-6.95,6-16.56,8.98-28.81,8.98h-11.51l-11.64.4c-10.3.1-16.3.16-18.04.16s-3.58-.08-5.35-.24v-.84c0-.63.13-1.05.39-1.32.32-.32.9-.55,1.77-.77,6.45-1.34,10.09-2.26,10.93-2.74.84-.5,1.42-1.29,1.74-2.37.6-2.06.92-7.35.92-15.88,0-.76-.03-1.76-.08-2.92-.11-3.45-.16-5.45-.16-5.95v-8.03c0-13.56-.16-25.44-.45-35.55l-.08-15.51-.08-1.92c-4.37-.63-8.24-1.03-11.59-1.16-2.16-.05-3.9-.24-5.24-.55h.02Z"/>
</svg>