<?xml version="1.0" encoding="UTF-8"?>
<svg id="Capa_1" data-name="Capa 1" xmlns="http://www.w3.org/2000/svg" viewBox="0 0 1080 1080">
  <g id="g877">
    <g id="g875">
      <path id="path835" d="M431.33,733.97v-78.81c-26.92-7.17-63.44-22.45-89.99-54.5-53.94,32.79-99.12,78.91-131.26,133.31h221.25Z"/>
      <path id="path837" d="M869.92,733.97h0c-48.72-82.63-127.44-145.23-221.25-173v173h221.25Z"/>
      <g id="g873">
        <path id="path839" d="M676.99,347.09c-40.24-42.39-140.3-10.43-140.76-71.08-.19-19.94,11.37-31.21,17.42-35.77,0,0,.47-.28.28-.56-.19-.28-.65,0-.75,0-10.34,5.03-35.96,20.49-38.29,51.98-3.82,51.33,49.47,83.66,64.09,149.33,7.83,34.75,8.85,69.12,3.26,106.57-1.12,7.55-2.42,15.18-4.1,23.01-9.97,46.67-30.56,98.84-60.46,163.4,0,.09-.09.09-.09.19,0,0-.47,1.02.37,1.3.93.37,1.49-.84,1.49-.84.09-.28.28-.47.37-.65,38.29-68.01,77.79-126.98,109.83-178.03,58.88-93.9,92.6-161.16,47.32-208.86Z"/>
        <path id="path841" d="M358.01,591.16c21.8,25.06,50.59,38.01,73.32,44.62,15.65,4.56,28.51,6.24,34.1,6.8.09,0,.65.09.65-.28s-.47-.47-.47-.47c-12.86-4.56-24.22-9.6-34.28-15-25.53-13.69-42.39-29.53-53.01-45.83-33.35-51.14-6.15-106.85,1.4-112.81-12.86,49.56-3.17,83.28,13.69,106.2,10.99,15,25.15,25.34,38.01,32.33,14.16,7.64,26.83,11.27,32.14,12.58.28.09.56.09.75-.19.09-.37-.47-.65-.47-.65-13.88-8.29-24.41-17.23-32.42-26.27-7.55-8.57-12.58-17.33-15.93-25.99-16.12-41.46,8.66-79.56,8.66-79.56-8.76,31.67-3.91,56.83,5.4,74.99.65,1.21,1.21,2.42,1.86,3.54,8.48,14.72,19.84,24.22,28.51,28.23.65.28.93-.28.56-.84-5.22-6.8-8.85-15.18-10.15-24.69-.56-4.01-.47-7.92-.19-11.83,1.77-20.4,15.28-37.26,33.82-39.78,15.56-2.14,29.9,5.22,39.59,18.35,2.33,3.17,4.47,6.8,6.43,10.99,6.06,12.95,10.06,30.74,9.87,53.66-.28,23.57-6.06,52.36-17.79,86.73,0,0-.37.93.47,1.21.84.28,1.3-.75,1.3-.75,15.84-29.07,36.24-86.82,40.43-140.3.93-12.02,1.02-23.76.09-34.93-6.15-72.29-64-126.51-129.3-121.01-9.13.75-17.89,2.7-26.18,5.59-49.19,15.46-90.27,62.23-81.42,126.6,4.29,29.53,15.84,51.89,30.56,68.75h0Z"/>
        <path id="path843" d="M572.47,298.55c.84.19,1.68,0,1.77-1.02.65-4.38,2.33-17.61,2.33-17.79,0-.28.28-1.4-1.02-1.96-16.86-5.5-18.63-22.73-18.82-26.92,0,0,.09-.37-.19-.47-.19-.09-.47.37-.47.37-4.01,6.52-15.09,39.22,16.4,47.79h0Z"/>
        <path id="path845" d="M553.46,226.17c1.21-.84,1.3-1.49.65-2.61-2.79-4.84-12.02-20.4-12.58-21.24-.65-1.12-1.21-1.21-2.24,0-6.61,7.64-38.94,40.43-93.44,23.66-.47-.09-.84-.28-1.02,0-.28.19-.19.56.19.84,47.32,41.46,98.65,5.96,108.44-.65Z"/>
        <path id="path847" d="M356.06,827.04h0c0,4.75-.75,8.48-2.14,10.99-1.4,2.42-3.26,3.63-6.06,3.63-1.68,0-2.98-.28-3.91-.93-1.49-1.02-2.61-3.07-3.26-7.17-.65-4.1-.93-9.97-.93-18.45h0v-.37c0-7.55.19-13.23,1.3-16.77.28-.75.56-1.4.84-1.96.47-.84.93-1.49,1.58-1.96,1.02-.84,2.42-1.3,4.38-1.3,2.89,0,4.66.84,5.96,2.79.09.09.19.28.19.47,1.12,2.05,1.68,5.4,1.77,10.43v1.02h21.43v-.93h0c0-4.01-.56-7.36-1.4-10.53-1.3-4.66-3.26-8.48-6.33-11.27-5.03-4.75-12.39-6.99-21.61-6.99h-.19c-13.04,0-20.59,4.47-24.59,11.64-1.12,1.96-1.96,4.19-2.7,6.61-1.68,5.96-2.14,12.95-2.14,20.31,0,11.64.84,21.61,4.94,28.88,4.1,7.27,11.74,11.46,24.41,11.46h.19c9.32,0,16.68-2.14,21.8-7.08,5.12-4.84,7.73-12.39,7.73-22.54h0v-.93h-21.43v.93h.19Z"/>
        <path id="path849" d="M438.22,789.4c-4.01-7.17-11.55-11.64-24.59-11.64h-.37c-13.04,0-20.59,4.47-24.69,11.64-1.12,1.96-1.96,4.19-2.61,6.61-1.68,5.96-2.05,12.95-2.14,20.31,0,11.64.84,21.61,4.94,28.88,4.1,7.27,11.64,11.46,24.41,11.46h.37c12.67,0,20.31-4.29,24.41-11.55,4.1-7.27,4.94-17.23,4.94-28.88,0-7.36-.47-14.25-2.14-20.31-.56-2.24-1.4-4.47-2.52-6.52h0ZM420.71,837.38c-1.3,4.01-3.63,5.31-7.27,5.31h-.09c-3.63,0-5.96-1.3-7.27-5.31-1.3-4.1-1.77-10.9-1.77-22.26,0-7.73.19-13.51,1.4-17.42.19-.65.47-1.12.75-1.68,1.3-2.7,3.45-4.29,6.99-4.29s5.68,1.49,6.99,4.29c.19.56.56,1.02.75,1.68,1.21,3.91,1.4,9.78,1.4,17.42,0,11.27-.47,18.17-1.86,22.26h0Z"/>
        <path id="path851" d="M488.25,785.21l-.19-.19c-3.35-4.66-7.83-6.52-13.32-6.99-.47,0-.93-.09-1.4-.09-5.87,0-12.2,2.61-16.58,7.64-.93,1.12-1.77,2.24-2.52,3.54-.47.84-.75,1.86-1.21,2.79-.56,1.3-1.12,2.61-1.49,4.1-1.68,5.96-2.05,12.76-2.05,19.94,0,11.64.84,21.61,5.03,28.88,3.63,6.33,10.34,11.46,18.45,11.46.65,0,1.3-.09,1.96-.09,5.31-.56,8.66-2.61,12.11-6.61l.19-.19v29.16h19.94v-99.59h-19l.09,6.24ZM486.39,837.1c-1.3,4.1-3.63,5.31-7.27,5.31h-.09c-.65,0-1.21,0-1.77-.09-2.89-.37-4.75-2.14-5.87-6.33-1.12-4.1-1.49-10.81-1.49-21.15,0-7.08.19-12.58,1.12-16.4.93-3.82,2.79-6.15,6.06-6.71.56-.09,1.21-.19,1.96-.19,4.19,0,6.52,1.96,7.73,5.87,1.21,3.91,1.4,9.69,1.4,17.42.09,11.27-.37,18.17-1.77,22.26Z"/>
        <path id="path853" d="M742.85,786.33v-7.17h-19.19v75.92h20.12v-43.69c0-3.45.19-7.27,1.86-10.25,1.58-2.7,4.66-4.84,10.53-5.22.65,0,1.12-.19,1.77-.19.75,0,1.58,0,2.52.09l.75.09h.19v-18.35h-1.12c-13.23-.09-17.42,8.76-17.42,8.76h0Z"/>
        <path id="path855" d="M710.99,789.31c-4.1-7.17-11.64-11.64-24.69-11.64h-.37c-13.04,0-20.59,4.47-24.69,11.64-1.12,2.05-1.96,4.29-2.61,6.71-1.68,5.96-2.14,12.86-2.14,20.12,0,11.64.84,21.61,4.94,28.88,4.1,7.27,11.74,11.55,24.41,11.55h.28c12.76,0,20.31-4.29,24.41-11.55,4.1-7.27,4.94-17.23,4.94-28.88,0-7.27-.37-14.16-2.05-20.12-.47-2.42-1.3-4.66-2.42-6.71ZM693.48,837.19c-1.3,4.1-3.63,5.31-7.27,5.31h-.09c-3.63,0-5.96-1.21-7.27-5.31-1.4-4.1-1.86-10.9-1.86-22.26,0-7.73.19-13.51,1.4-17.42.19-.56.47-1.02.65-1.58,1.3-2.79,3.45-4.38,7.08-4.38s5.68,1.49,7.08,4.38c.28.47.47.93.65,1.58,1.3,3.91,1.4,9.69,1.4,17.42,0,11.37-.47,18.26-1.77,22.26h0Z"/>
        <path id="path857" d="M561.47,807.2c-3.07-1.4-5.68-2.79-7.55-4.29-1.96-1.49-2.79-2.98-2.89-4.84-.09-2.42.37-4.29,1.4-5.4,1.21-1.21,2.79-1.58,4.47-1.58,1.86,0,3.26.65,4.19,1.58,1.3,1.4,1.86,2.89,1.86,8.1v1.3h20.96s.19-2.24.19-2.89h0c0-7.55-3.07-13.04-7.73-16.49-4.75-3.54-11.09-5.12-17.51-5.12s-13.51,1.21-19,4.56c-5.5,3.35-9.5,8.85-9.5,17.14v.09h0c0,6.15,2.33,10.62,5.68,13.97,5.03,5.03,12.48,7.73,18.45,10.62,2.98,1.4,5.68,2.89,7.55,4.75,1.86,1.77,2.89,3.82,2.89,6.52,0,5.03-2.98,6.99-6.71,6.99-3.35,0-4.94-1.21-5.96-3.26-.75-1.68-.84-3.17-.84-6.43,0-1.4.09-2.98.09-2.98h-20.96s-.09,2.7-.09,3.63v.09c0,9.32,2.89,15.28,8.01,18.82,5.12,3.54,12.2,4.47,20.4,4.56h0c8.38,0,15.09-2.52,19.84-6.71,4.75-4.19,7.36-10.06,7.36-16.77v-.28c0-6.15-2.24-10.81-5.59-14.44-5.59-5.22-12.95-8.38-19-11.27h0Z"/>
        <path id="path859" d="M645.13,789.03c-.75-1.3-1.58-2.42-2.52-3.54-4.38-5.03-10.62-7.64-16.49-7.64h-1.4c-5.59.37-10.06,2.33-13.41,6.99l-.19.19v-6.24h-18.91v99.59h19.94v-29.16l.19.19c3.35,4.1,6.71,6.06,12.11,6.61.65.09,1.4.09,2.05.09,8.1,0,14.81-5.12,18.45-11.46,4.19-7.17,4.94-17.23,4.94-28.88,0-7.17-.37-13.97-2.05-19.84-.65-2.42-1.49-4.75-2.7-6.89h0ZM627.99,835.8c-1.12,4.19-2.98,5.87-5.87,6.33-.56.09-1.12.09-1.77.09h-.09c-3.63,0-5.96-1.21-7.27-5.31-1.4-4.1-1.86-10.9-1.86-22.26,0-7.73.19-13.51,1.4-17.42,1.21-3.91,3.54-5.87,7.73-5.87.65,0,1.4.09,1.96.19,1.21.28,2.14.75,2.98,1.4,1.02.75,1.77,1.77,2.33,3.07.28.65.56,1.49.84,2.33,1.02,3.82,1.12,9.32,1.12,16.4,0,10.25-.37,16.95-1.49,21.05h0Z"/>
        <path id="path861" d="M787.66,757.64l-1.3.56-18.91,9.6v70.61c0,2.42.56,6.71,3.45,10.53,2.89,3.73,7.45,6.89,15.37,6.89,7.45,0,11.18-1.02,11.18-1.02v-14.63s-1.68.56-4.38.56c-2.98,0-4.01-.75-4.66-1.86-.65-1.12-.75-2.98-.75-5.4v-39.03h10.15v-15.46h-10.15v-21.33Z"/>
        <polygon id="polygon863" points="825.3 855.08 825.3 796.58 825.3 779.16 818.59 779.16 806.01 779.16 806.01 855.08 806.85 855.08 825.3 855.08"/>
        <polygon id="polygon865" points="814.86 770.86 825.3 770.86 825.3 754.38 806.67 754.38 806.01 754.38 806.01 770.86 806.85 770.86 814.86 770.86"/>
        <path id="path867" d="M860.79,771.42c.65-1.12,1.68-1.86,4.66-1.86,2.7,0,4.38.56,4.38.56v-14.63s-3.63-.93-11.09-.93c-8.01,0-11.74,3.17-14.53,6.89-2.79,3.73-3.45,8.01-3.45,10.53v7.17h-8.85v15.46h8.76v60.55h19.47v-60.55h9.22v-15.46h-9.22v-2.33c0-2.42.09-4.38.65-5.4h0Z"/>
        <path id="path869" d="M291.31,788.47c-2.89-4.56-7.27-7.73-13.51-9.41-3.07-.84-6.61-1.3-10.62-1.3h-.37c-2.52,0-4.75.19-6.89.56-8.85,1.4-14.53,5.31-17.79,11.09-4.01,7.17-4.75,16.68-4.75,26.83s.75,18.54,3.45,25.34c.47,1.21.93,2.42,1.49,3.54,4.1,7.27,11.74,11.46,24.41,11.46h.19c9.41,0,16.58-2.79,21.33-7.45,4.94-4.75,7.55-11.55,7.83-19.84v-.93h-21.71v.93c0,2.98-.37,6.15-1.49,8.48-1.12,2.33-2.98,3.82-5.68,3.82-2.33,0-3.54-.65-4.66-1.86-3.17-3.45-3.63-11.74-3.63-18.17v-.19h37.54v-.84c.09-1.86.09-3.73.09-5.59,0-7.08-.65-13.41-2.24-19-.56-2.61-1.58-5.22-2.98-7.45h0ZM276.22,808.87h0l-18.07.09h0v-.84c0-3.17.09-7.27,1.12-10.62.93-2.89,2.7-5.22,5.78-5.96.65-.09,1.3-.19,2.14-.19.75,0,1.49.09,2.05.19,3.17.65,4.84,2.98,5.87,5.96,1.12,3.35,1.12,7.45,1.12,10.62v.75h0Z"/>
        <polygon id="polygon871" points="229.55 855.17 229.55 754.47 210.17 754.47 210.17 855.17 211.1 855.17 229.55 855.17"/>
      </g>
    </g>
  </g>
</svg>