<?xml version="1.0" encoding="UTF-8"?>
<svg id="Capa_1" data-name="Capa 1" xmlns="http://www.w3.org/2000/svg" viewBox="0 0 850 170.03">
  <path d="M0,169.49h52.82v-64.14c4.85-15.09,32.34-14.55,37.73,0v64.14h49.58v-63.6c4.85-15.63,31.26-15.63,37.2,0v63.6h52.82v-63.6c-.54-38.27-61.44-63.06-113.73-41.51C64.68,44.98,3.23,62.23,0,105.35v64.14Z" style="fill: #000205; fill-rule: evenodd;"/>
  <path d="M240.4,56.84h0v112.11h104.02c51.74-1.08,71.68-31.81,71.14-63.6h-47.42c-1.08,8.08,3.23,23.72-16.71,27.49h-58.21c.54-25.33.54-50.67.54-75.99h-53.36Z" style="fill: #000205; fill-rule: evenodd;"/>
  <path d="M266.8,54.68c16.18,0,29.11-12.27,29.11-27.34S282.97,0,266.8,0s-29.1,12.83-29.1,27.34,12.94,27.34,29.1,27.34Z" style="fill: #000205; fill-rule: evenodd;"/>
  <path d="M757.29,106.43h0c-5.93-29.64-39.89-51.75-79.78-51.75-44.19,0-79.23,25.33-79.23,58.21-1.08,32.34,37.72,57.14,81.38,57.14h13.47v-37.2c-6.46.54-10.77,0-17.78,0-12.4-1.62-23.18-10.78-23.18-19.94,0-10.24,11.85-18.33,25.33-18.33,12.4,0,24.26,6.47,25.87,15.09,0,19.4.54,39.35.54,59.29h53.9c-.53-21.02-.53-41.51-.53-62.52Z" style="fill: #000205; fill-rule: evenodd;"/>
  <path d="M302.37,122.6c0-8.62.54-17.25.54-25.88,3.77-31.26,45.28-39.34,76.53-39.88h46.36V23.42h54.98v33.96c10.78,0,22.1-.54,32.88-.54v36.65h-32.88c1.08,21.57-7.01,39.89,33.42,38.27,1.62-.54,2.69-.54,4.31-1.07,0-4.85.54-9.7.54-14.55.54-38.27,29.1-61.45,81.93-59.83,0,12.4,0,24.25.53,36.65-18.86-2.15-27.48,6.47-29.64,15.09,0,20.48-.54,40.43-1.08,60.91h-57.67c-58.21,0-92.17-22.64-88.94-74.92h-36.11c-19.4,0-36.11,3.23-36.11,12.4,0,5.39.54,10.24.54,16.17h-50.13Z" style="fill: #000205; fill-rule: evenodd;"/>
  <path d="M763.76,21.8h53.9v93.79c1.62,10.24,13.48,17.25,32.34,14.55v37.73c-38.27,5.39-79.24-10.78-86.24-44.74V21.8Z" style="fill: #000205; fill-rule: evenodd;"/>
</svg>