<?xml version="1.0" encoding="UTF-8"?>
<svg id="Capa_1" data-name="Capa 1" xmlns="http://www.w3.org/2000/svg" viewBox="0 0 754.22 457.16">
  <path d="M355.96,232.9c43.66,10.19,42.68,6.26,56.15.46,6.04-2.6,1.36-8.07,1.36-11.61,0-9.2-9.83-9.13-11.16-21.09-3.29-29.6-15.43-22.57-18.13-26.11-13.08-18.29-21.45-5.32-24-1.98-5.4,6.37-9.92,9.47-14.9,12.64-7.69,4.91-7.5,12.55-9.81,15.85-5.23,7.5-11.64,7.96-16.48,21.35-3.2,8.86.74,10.92,4.04,10.52,8.71-1.06,25.56-1.77,32.93-.05ZM593.28,232.42c15.44.28,27.39,8.02,46.3,8.02,3.77,0,14.12-3.27,26.38-2.46,6.73.45.64-26.52-4.36-30.5-13.52-10.75-12.5-23.1-36.99-21.83-7.98.41-15.17-4.8-28.17,18.78-3.4,6.16-12.55,12.25-15.24,20.04,0,6.37,4.02,7.8,12.08,7.94ZM580.46,307.97c0,14.12,7.57,11.42,12.43,29.21,1.78,6.53,5.14,20.33,17.28,26.95,9.81,5.34,16.48,17.84,35.36,18.69,22.09.99,28.15-6.53,39.58-21.15,8.74-11.19,29.87-22.33,37.06-22.87,9.63-.72,45.01,43.39,2.01,79.8-11.64,9.86-19.57,17.12-28.94,20.05-7.07,2.21-6.28.13-18.22,9.2-12.62,9.58-21.65,5.35-34.46,6.47-10.13.89-9.34,6.44-31.75-3.11-7.31-3.11-17.73-8.56-21.54-11.85-14.78-12.75-19.59-14.04-24.33-22.6-9.62-17.36-17.55-18.46-22.28-26.95-1.21-1.99-6.78-16.17-8.76-21.66-2.64-7.33-9.75-15.2-13.12-25.1-3.37-12.74-4.81-22.52-4.4-34.64.34-9.56-.16-12.37,1.33-12.37-6.75,0-10.34-.13-18.22,1.74-23.03,5.47-25.63,2.49-43.45.05-23.67-3.24-37.26-1.35-51.05,4.2-28.98,11.67-56.17-6.71-66.84-4.35-3.34.74-7.44,1.75-7.44,1.75-4.73,2.83,1.36,14.26,2.02,19.81,2.01,16.86-.64,16.06,6.79,27.39,4.05,6.37,8.49,15.14,10.12,19.82,1.98,5.66,3.67,7.22,12.84,10.52,3.83,1.38,28.64,7.2,39.13,2.22,5.05-2.4,7.51-3.41,9.52-5,2.47-1.94,4.26-4.74,9.33-11.99,6.35-9.09,18.01-14.06,18.47-14.62,6.85-8.28,11.19-8.79,17.59-7.93,13.85,1.85,18.09,40.32,15.96,50.16-8.67,40.12-19.13,38.79-38.8,48.42-16.69,8.17-36.91,4.59-46.25,11.04-11.63,8.04-11.1,5.6-26.7,3.21-4.67-.72-8.05-6.9-12.78-6.9-3.38,0-5.74-4.81-9.8-4.81-3.37,0-5.38-4.67-8.76-4.67s-6.76-3.11-10.14-3.11-5.36-3.13-8.07-3.13c-4.05-3.54-6.14-5.63-10.55-10.98-1.68-2.04-8.09-12.44-8.09-13.5-3.37-8.49-4.31-15.24-7.04-24.07-1.05-3.38-1.46-6.42-3.38-8.5-2.31-2.5-6.73-2.88-6.73-5.71-4.05-4.96-5.78-9.86-5.78-15.53,0-7.78-3.21-11.6-1.95-28.46.51-6.87-2.37-8.77-5.42-10.23-2.06-.99-5.1-.23-7.8-.23l-4.34,6.13c-1.96,7.93.9,9.93-6.39,23.13-3.37,6.37-4.08,9.09-7.18,16-3.4,7.6-3.72,17.42-3.72,28.04,0,12.74-.33,26.84-1.4,33.27-1.8,10.81-6,20.15-14.1,26.52-8.77,7.08-21.25,6.06-27.03,4.68-5.91-1.42-22.41-2.93-31.19-2.93-10.13,0-9.28,2.5-19.41,2.5-7.42,0-11.49.84-18.91.84-8.78,0-15.16-3.99-23.94-3.99-4.73,0-7.77,1.45-12.5,2.44-6.61,1.38-11.46,5.24-18.21,5.24-8.78,0-14.21,3.57-22.29,2.46-4.76-.66-10.44-5.24-15.16-8.78-6.07-4.96-12.52-8.83-12.52-17.32,0-3.54-1.27-5.71-.67-9.2.99-5.81,6.07-11.32,8.78-18.4,3.38-7.79,4.92-14.46,5.45-22.93.99-15.79-4.03-23.71-4.03-32.92,0-14.86.89-13.14.89-28.01,0-7.52-3.62-12.34-2.31-34.36.68-11.31,4.98-18,7.39-29.07,1.65-7.55,3.38-12.28,3.38-22.19l.02-15.57c0-4.95-4.71-11.03-4.71-15.98,0-6.37,1.35-9.91,1.35-16.99,0-8.49-.05-4.23-.05-12.72,0-4.95-5.6-14.48-6.36-21.35-.94-8.55.4-13.5-2.31-20.58,0-3.54-.61-7.05-1.42-9.77-2.24-7.55-4.23-6.31-8.47-11.65-4.05-5.66-10.46-8.49-10.46-14.86-3.38-9.91-3.65-13.03-.28-22.95,2.7-7.79,13.29-19.1,15.77-20,8.6-3.12,12.2-7.51,20.97-7.51,7.42,0,12.16-5.14,19.59-5.14,5.4,0,11.46-1.49,16.81-2.27,13.51-1.98,25.27.31,33.08,15.53,3.57,6.95,19.42,22.69,14.86,38.29-2.96,10.12-19.71,21.17-23.21,25.62-6.53,8.29-.22,30.93.29,33.5,1.2,5.98,3.39,28.79,3.39,38.7,0,5.66,1.75,9.13,5.12,23.99,4.05,21.23,4.93,28.06-3.04,46.13-6.55,14.85-9.14,37.56-5.09,54.54,4.05,15.57-.33,23.83-.33,40.12,0,33.27,7.57,28.73,27.36,28.51,19.73-.22,33.25,14.59,39.4-8.98,1.6-6.15-3.89-15.85,12.85-53.36,4.54-10.17,9.15-9.74,9.15-35.22s9.76-39.97,53.64-41.37c6.09-.19,11.8-.31,15.24-.33-.46,0-1.29-10.22.22-25.01,1.24-12.14,1.35-26.46,11.82-34.02,15.85-11.47,17.19-24.98,21.3-33.22,2.46-4.93,10.42-19.7,27.41-23.98,7.85-1.98,13.78,1.14,25.17-12.07,7.37-8.54,5.48-5.43,26.4-12.51,12.82-4.96,29.58.33,41.74.33,12.82,0,19.67,9.3,31.82,22.75,18.22,19.82,24.44,19.43,34,36.72,8,14.47-.41,30.39,7.88,48.6,1.6,3.51,4.67,12.64,5.32,21.42.27,3.69,8.22,2.42,14.93,3.13,4.11.43,4.92-.38,10.32-3.21,0-9.2,5.33-12.66,7.09-15.46,2.99-4.75-1.91-9.79,3.49-24.65,4.05-12.74,13.51-13.22,22.29-24.54,10.13-14.16-.2-1.97,12.62-23.2,6.07-9.91,23.79-20.36,33.24-24.6,8.1-3.54,11.49-.56,22.29-.56,14.18,0,18.65-2.22,25.39-4.82,7.44-2.87,14.44-3.68,24.57-.84,6.75,0,9.68,4.58,21.15,12.36,12.83,8.49,7.2,11.79,20.73,24.5,9.57,9,19,5.04,31.23,38.41,6.92,18.88,3.16,41.52,3.16,56.38,0,6.98,2.16,11.88,2.96,35.02.59,16.8-6.89,25.38-21.19,24.25-26.95-2.14-36.76,7.56-48.24-.23-16.06-10.52-16.5-4.6-30.19-7.31-16.46-3.26-24.25,5.19-33.03,5.19s-6.88-3.36-17.69-3.44c-4.73-.04-8.94,2.21-13.67,2.21-2.08,5.67-2.48,3.75-2.49,3.75,0,0,.15.75.15,4.56ZM710.23,33.34h10.82c3.41,0,7.02-.87,7.02-5.96s-3.9-5.77-6.2-5.77h-11.64v11.73ZM688.16,35.9c0,16.66,13.5,30.16,30.16,30.16s30.16-13.5,30.16-30.16-13.5-30.16-30.16-30.16-30.16,13.51-30.16,30.16ZM682.43,35.9c0-19.82,16.07-35.9,35.89-35.9s35.9,16.07,35.9,35.9-16.07,35.89-35.9,35.89-35.89-16.07-35.89-35.89ZM710.23,52.14h-4.67V17.61h15.97c5.68,0,11.35,1.97,11.35,9.29,0,5.1-2.59,6.97-4.81,8.27,1.97.81,3.94,1.68,4.14,6.49l.29,6.26c.05,1.92.29,2.65,1.73,3.46l-5.72.77c-.67-2.11-.82-7.36-.82-8.66,0-2.84-.58-6.16-6.16-6.16h-11.3v14.82Z" style="fill: #000205; fill-rule: evenodd;"/>
</svg>