<?xml version="1.0" encoding="UTF-8"?>
<svg id="Capa_1" data-name="Capa 1" xmlns="http://www.w3.org/2000/svg" viewBox="0 0 778.23 226.93">
  <polygon points="0 0 63.96 157.04 101.95 72.82 140.57 157.04 201.37 .63 169.07 .63 138.67 72.19 101.32 2.53 65.22 75.35 32.93 0 0 0" style="fill: #ff4d00;"/>
  <path d="M194.4,31.03v117.78h29.13v-71.55c5.07-13.93,21.53-19.63,32.29-19l.63-27.86c-13.3-3.16-29.13,6.97-32.3,10.77v-10.13h-29.76,0Z" style="fill: #ff4d00;"/>
  <path d="M343.84,31.66v117.78h29.13v-67.12c0-24.7,39.26-25.33,37.99-1.9v69.65h30.4v-79.15c-1.9-43.69-52.56-46.23-67.75-27.23v-12.03h-29.77Z" style="fill: #ff4d00;"/>
  <rect x="561.04" y="1.27" width="31.03" height="150.08" style="fill: #ff4d00;"/>
  <path d="M262.16,56.36h47.49l-1.27,17.73c-29.13-13.93-65.22,1.27-65.22,35.46,0,26.13,24.07,41.94,45.6,40.6,7.69-.48,15.06-3.15,20.89-8.31v7.6h25.96V31.66h-65.23l-8.23,24.69h.01ZM289.07,124.51c-10.14,0-18.36-6.42-18.36-14.33s8.22-14.33,18.36-14.33,18.36,6.42,18.36,14.33-8.22,14.33-18.36,14.33" style="fill: #ff4d00;"/>
  <path d="M636.39,115.88l73.45-51.93c-19.63-48.12-112.08-48.12-112.08,25.96s86.12,74.72,106.38,42.42l-12.03-22.16c-18.37,26.6-55.09,18.37-55.72,5.7M669.95,63.96l-44.33,31.03c-6.96-30.4,29.13-52.56,44.33-31.03" style="fill: #ff4d00;"/>
  <path d="M716.18,31.03v117.78h29.13v-71.55c5.07-13.93,21.53-19.63,32.29-19l.63-27.86c-13.3-3.16-29.13,6.97-32.29,10.77v-10.13h-29.76Z" style="fill: #ff4d00;"/>
  <path d="M533.14,113.35c7.79-8.95,12.53-20.61,12.53-33.41,0-8.27-2.01-16.05-5.51-22.96h8.85l6.96-24.7h-43.32c-5.59-2.11-11.62-3.31-17.94-3.31-28.15,0-50.96,22.82-50.96,50.96,0,12.71,4.65,24.33,12.35,33.26,0,0-7.88,8.61-12.26,14.82l22.86,18.25,1.09,1.54c5.72-9.51,16.13-15.87,28.03-15.87,18.05,0,32.69,14.64,32.69,32.69s-14.64,32.68-32.69,32.68c-11.28,0-21.23-5.72-27.1-14.41l-20.32,21.55c11.64,13.02,26.67,22.49,45.52,22.49,35.11,0,63.58-28.47,63.58-63.58,0-20.31-9.54-38.38-24.36-50.02M515.96,81.29c0,11.87-9.54,21.25-21.41,21.25s-21.49-9.62-21.49-21.49,9.62-21.49,21.49-21.49,20.8,8.95,21.46,20.23c.15.63-.04,1.08-.04,1.5" style="fill: #ff4d00;"/>
  <path d="M599.73,12.29c0-5.46,4.43-9.49,9.66-9.49s9.61,4.03,9.61,9.49-4.43,9.54-9.61,9.54-9.66-4.03-9.66-9.54M609.39,20.24c4.3,0,7.7-3.37,7.7-7.95s-3.4-7.9-7.7-7.9-7.75,3.39-7.75,7.9,3.4,7.95,7.75,7.95M607.38,17.79h-1.66V6.83h4.17c2.59,0,3.88.96,3.88,3.12,0,1.96-1.23,2.82-2.84,3.02l3.12,4.83h-1.86l-2.89-4.75h-1.91v4.75h-.01ZM609.37,11.63c1.41,0,2.66-.1,2.66-1.79,0-1.36-1.23-1.61-2.39-1.61h-2.27v3.39h2Z" style="fill: #ff4d00;"/>
</svg>